<?xml version="1.0" encoding="utf-8"?>
<!-- Generator: Adobe Illustrator 17.0.0, SVG Export Plug-In . SVG Version: 6.00 Build 0)  -->
<!DOCTYPE svg PUBLIC "-//W3C//DTD SVG 1.1//EN" "http://www.w3.org/Graphics/SVG/1.1/DTD/svg11.dtd">
<svg version="1.1" id="Layer_1" xmlns="http://www.w3.org/2000/svg" xmlns:xlink="http://www.w3.org/1999/xlink" x="0px" y="0px"
	 width="792px" height="612px" viewBox="0 0 792 612" enable-background="new 0 0 792 612" xml:space="preserve">
<g>
	<g>
		<defs>
			<rect id="SVGID_1_" x="287" y="231" width="217.68" height="150.12"/>
		</defs>
		<clipPath id="SVGID_2_">
			<use xlink:href="#SVGID_1_"  overflow="visible"/>
		</clipPath>
		
			<path clip-path="url(#SVGID_2_)" fill="none" stroke="#000000" stroke-width="0.72" stroke-linecap="round" stroke-linejoin="round" stroke-miterlimit="10" d="
			M288.17,377.574v2.25 M288.17,379.824h2.25"/>
	</g>
	
		<path fill="none" stroke="#000000" stroke-width="0.792" stroke-linecap="round" stroke-linejoin="round" stroke-miterlimit="10" d="
		M451.07,295.674l-0.45,0.45 M450.62,296.124v9.45 M450.62,305.574l0.9,0.9 M448.37,295.674l0.45,0.45 M448.82,296.124v9.45
		 M448.82,305.574l-0.9,0.9 M465.02,268.674l-0.9,0.9 M464.12,269.574h-3.6 M460.52,269.574l-0.9-0.9 M467.27,272.274v-0.45
		 M467.27,271.824l-0.45-0.45 M466.82,271.374h-3.6 M463.22,271.374v5.85 M463.22,277.224h0.9 M464.12,277.224v4.95 M464.12,282.174
		h-3.6 M460.52,282.174l-0.45-0.45 M457.37,271.374h4.05 M461.42,271.374v5.4 M461.42,276.774l-1.35,1.35 M456.47,284.874l0.9-0.9
		 M457.37,283.974h4.5 M461.87,283.974l0.45,0.45 M494.72,325.194h-6.12 M488.6,325.194l-0.36-0.36 M494.36,327.174h-4.68
		 M489.68,327.174l-0.36,0.18 M494.36,328.938h-4.68 M494.36,330.81h-5.04 M494.36,332.646h-5.04 M494.468,334.554h-5.256"/>
</g>
</svg>
