<?xml version="1.0" encoding="utf-8"?>
<!-- Generator: Adobe Illustrator 17.0.0, SVG Export Plug-In . SVG Version: 6.00 Build 0)  -->
<!DOCTYPE svg PUBLIC "-//W3C//DTD SVG 1.1//EN" "http://www.w3.org/Graphics/SVG/1.1/DTD/svg11.dtd">
<svg version="1.1" id="Layer_1" xmlns="http://www.w3.org/2000/svg" xmlns:xlink="http://www.w3.org/1999/xlink" x="0px" y="0px"
	 width="792px" height="612px" viewBox="0 0 792 612" enable-background="new 0 0 792 612" xml:space="preserve">
<g>
	<g>
		<defs>
			<rect id="SVGID_1_" x="287" y="231" width="217.68" height="150.12"/>
		</defs>
		<clipPath id="SVGID_2_">
			<use xlink:href="#SVGID_1_"  overflow="visible"/>
		</clipPath>
		
			<path clip-path="url(#SVGID_2_)" fill="none" stroke="#000000" stroke-width="0.72" stroke-linecap="round" stroke-linejoin="round" stroke-miterlimit="10" d="
			M288.17,377.574v2.25 M288.17,379.824h2.25"/>
		
			<path clip-path="url(#SVGID_2_)" fill="none" stroke="#000000" stroke-width="1.152" stroke-linecap="round" stroke-linejoin="round" stroke-miterlimit="10" d="
			M478.52,236.274v21.6 M464.12,236.274v14.4 M456.92,236.274v15.3 M485.72,236.274v14.4 M500.12,295.674v10.8 M485.72,286.674v22.5
			 M478.52,295.674v10.8 M471.32,295.674v10.8 M464.12,295.674v10.8 M456.92,295.674v10.8 M435.32,295.674v12.6 M428.12,295.674
			v10.8 M420.92,295.674v10.8 M413.72,295.674v10.8 M406.52,295.674v10.8 M499.22,353.274v9 M492.92,353.274v9 M485.72,353.274v9
			 M485.72,362.274v1.8 M478.52,353.274v16.65 M471.32,353.274v15.75 M464.12,353.274v13.95 M456.92,353.274v10.8 M449.72,353.274
			v10.8 M442.52,353.274v10.8 M435.32,353.274v10.8 M428.12,353.274v10.8 M420.92,353.274v10.8 M413.72,353.274v10.8
			 M406.52,353.274v10.8 M399.32,353.274v10.8 M392.12,353.274v12.6 M384.92,353.274v10.8 M377.72,353.274v10.8 M370.52,349.224
			v14.85 M363.32,353.274v10.8 M356.12,353.274v10.8 M348.92,353.274v10.8 M341.72,353.274v10.8 M334.52,353.274v12.6
			 M327.32,353.274v10.8 M320.12,353.274v10.8 M312.92,353.274v13.5 M305.72,353.274v9 M305.72,362.274v7.2 M298.52,353.274v7.2
			 M291.32,353.274v11.25 M341.72,364.074h21.6 M370.52,364.074h7.2 M363.32,353.274h-64.8 M298.52,353.274h-7.2 M392.12,353.274
			h7.2 M406.52,353.274h36 M449.72,364.074h-43.2 M449.72,353.274h36 M485.72,353.274h13.5 M478.52,295.674h-16.2 M462.32,295.674
			h-10.8 M478.52,306.474h-26.55 M451.97,306.474h-0.45 M447.92,306.474h-5.4 M435.32,295.674h-28.8 M428.12,306.474h-21.6
			 M478.52,236.274h-21.6 M471.32,236.274v25.2 M471.32,261.474v3.6 M471.32,265.074v3.6 M471.32,268.674v3.6 M471.32,272.274h-3.6
			 M465.02,268.674h6.3 M459.62,268.674v-13.5 M459.62,255.174l4.5-4.5 M456.92,251.574l-1.8,1.8 M455.12,253.374v16.2
			 M455.12,269.574l1.8,1.8 M478.52,257.874l14.4,14.4 M492.92,272.274v35.1 M485.72,286.674l-14.4-14.4 M462.32,284.874v10.8
			 M447.92,295.674v-4.5 M447.92,291.174l3.15-3.15 M451.07,288.024l0.45-0.45 M451.52,287.574v-4.5 M451.52,283.074h3.6
			 M455.12,283.074l1.35,1.35 M442.52,306.474v-10.8 M442.52,295.674v-18 M442.52,277.674l6.3-6.3 M448.82,271.374h8.1
			 M460.07,278.124l-1.8,1.8 M458.27,279.924h-3.15 M455.12,279.924h-3.6 M451.52,279.924v-4.5 M451.52,275.424h-3.15
			 M448.37,275.424l-0.9,0.9 M447.47,276.324v11.7 M447.47,288.024h3.6 M455.12,283.074v3.15 M455.12,279.924v-3.15 M457.82,271.824
			v3.6 M467.27,272.274v3.15 M460.07,278.124v3.6 M470.87,265.074h-2.7 M471.32,261.474h-3.15 M471.32,261.474h2.7 M471.32,265.074
			h2.7 M471.32,268.674h2.7 M471.77,272.274h2.25 M466.82,284.424v3.6 M457.82,284.424v3.15 M435.32,295.674h7.2 M435.32,308.274
			l1.8,1.8 M437.12,310.074h13.05 M450.17,310.074l1.8-1.8 M451.97,308.274v-1.8 M437.12,310.074l-3.6,3.6 M433.52,313.674v1.8
			 M433.52,315.474v7.65 M433.52,323.124h-3.6 M429.92,323.124v-5.4 M429.92,317.724v-3.6 M429.92,314.124l-1.8-1.8 M428.12,312.324
			v-5.85 M429.92,317.724h-12.6 M417.32,317.724l-0.9,0.9 M416.42,318.624v6.75 M416.42,325.374h1.8 M418.22,325.374h4.5
			 M422.72,325.374h5.4 M428.12,325.374l1.8-2.25 M418.22,325.374v15.3 M418.22,340.674v2.25 M418.22,342.924l-4.95,4.95
			 M413.27,347.874h-30.15 M383.12,347.874l-5.4,5.4 M416.42,325.374h-3.15 M413.27,325.374v5.4 M413.27,330.774l-4.95,4.95
			 M408.32,335.724h-24.3 M384.02,335.724l-13.5,13.5 M418.22,340.674h4.5 M422.72,340.674v-4.5 M422.72,336.174v-10.8
			 M442.52,353.274v-1.8 M442.52,351.474l-10.8-10.8 M431.72,340.674h-9 M422.72,336.174h15.75 M438.47,336.174l11.25,11.25
			 M449.72,347.424v5.85 M399.32,364.074h7.2 M392.12,365.874l1.35,1.35 M393.47,367.224h60.3 M453.77,367.224l3.15-3.15
			 M341.72,364.074v2.25 M341.72,366.324l0.9,0.9 M342.62,367.224h50.85 M334.52,365.874l4.05,4.05 M338.57,369.924h122.85
			 M461.42,369.924l2.7-2.7 M471.32,369.024l-3.6,3.6 M467.72,372.624H328.67 M320.12,364.074h3.6 M323.72,364.074h3.6
			 M312.92,366.774l8.55,8.55 M321.47,375.324h151.65 M473.12,375.324l5.4-5.4 M328.67,372.624l-4.95-4.95 M323.72,367.674v-3.6
			 M305.72,369.474l8.55,8.55 M314.27,378.024h163.35 M477.62,378.024l6.3-6.3 M483.92,371.724v-5.85 M483.92,365.874l1.8-1.8
			 M291.32,364.524l0.45,0.45 M291.77,364.974h7.65 M299.42,364.974l3.15,3.15 M302.57,368.124v5.4 M302.57,373.524l6.3,6.3
			 M483.92,379.824l3.6-3.6 M487.52,376.224v-8.55 M487.52,367.674l2.25-2.25 M489.77,365.424h10.8 M500.57,365.424l2.7-2.7
			 M503.27,362.724v-11.7 M503.27,351.024l-4.05-4.05 M499.22,346.974h-10.35 M488.87,346.974l-6.75-6.75 M482.12,340.224v-12.6
			 M482.12,327.624v-14.85 M482.12,312.774l3.6-3.6 M492.92,307.374l-7.2,7.2 M485.72,314.574v7.65 M485.72,322.224l2.7,2.7
			 M489.32,327.624h-7.2 M502.82,324.474h-6.3 M502.82,329.874h-6.3 M502.82,335.274h-6.3 M496.52,324.474v10.8 M502.82,324.474
			v10.8 M502.82,324.474v-9.9"/>
		
			<path clip-path="url(#SVGID_2_)" fill="none" stroke="#000000" stroke-width="1.152" stroke-linecap="round" stroke-linejoin="round" stroke-miterlimit="10" d="
			M496.52,324.474v-9.9 M502.82,335.274v11.25 M496.52,335.274v10.8 M494.72,331.674v-14.4 M494.72,332.124v10.35 M489.77,324.924
			v-7.65 M489.32,334.842v7.632 M478.52,306.474v4.05 M478.52,310.524l-1.35,1.35 M477.17,311.874v32.85 M477.17,344.724l8.55,8.55
			 M433.97,319.074h2.7 M433.52,315.474h3.15 M489.32,327.714v4.68 M298.52,360.474l1.8,1.8 M300.32,362.274h5.4 M492.92,362.274
			h6.3 M492.92,362.274h-7.2"/>
	</g>
</g>
</svg>
