<?xml version="1.0" encoding="utf-8"?>
<!-- Generator: Adobe Illustrator 17.0.0, SVG Export Plug-In . SVG Version: 6.00 Build 0)  -->
<!DOCTYPE svg PUBLIC "-//W3C//DTD SVG 1.1//EN" "http://www.w3.org/Graphics/SVG/1.1/DTD/svg11.dtd">
<svg version="1.1" id="Layer_1" xmlns="http://www.w3.org/2000/svg" xmlns:xlink="http://www.w3.org/1999/xlink" x="0px" y="0px"
	 width="792px" height="612px" viewBox="0 0 792 612" enable-background="new 0 0 792 612" xml:space="preserve">
<g>
	<g>
		<defs>
			<rect id="SVGID_1_" x="371" y="274" width="49.2" height="64.2"/>
		</defs>
		<clipPath id="SVGID_2_">
			<use xlink:href="#SVGID_1_"  overflow="visible"/>
		</clipPath>
		
			<path clip-path="url(#SVGID_2_)" fill="none" stroke="#000000" stroke-width="0.72" stroke-linecap="round" stroke-linejoin="round" stroke-miterlimit="10" d="
			M372.08,333.4v1.08 M372.08,334.48h1.08"/>
		
			<line clip-path="url(#SVGID_2_)" fill="none" stroke="#000000" stroke-width="1.152" stroke-linecap="round" stroke-linejoin="round" stroke-miterlimit="10" x1="376.04" y1="323.32" x2="376.04" y2="330.16"/>
		
			<path clip-path="url(#SVGID_2_)" fill="none" stroke="#000000" stroke-width="1.152" stroke-linecap="round" stroke-miterlimit="10" d="
			M376.04,330.16c0,0.994,0.806,1.8,1.8,1.8"/>
	</g>
	
		<line fill="none" stroke="#000000" stroke-width="1.152" stroke-linecap="round" stroke-linejoin="round" stroke-miterlimit="10" x1="377.84" y1="331.96" x2="380" y2="331.96"/>
	<path fill="none" stroke="#000000" stroke-width="1.152" stroke-linecap="round" stroke-miterlimit="10" d="M380,331.96
		c0.994,0,1.8-0.806,1.8-1.8"/>
	
		<path fill="none" stroke="#000000" stroke-width="1.152" stroke-linecap="round" stroke-linejoin="round" stroke-miterlimit="10" d="
		M381.8,330.16v-10.44 M381.8,319.72h-1.44 M380.36,319.72v-3.24 M380.36,316.48l-0.72-0.72 M379.64,315.76v-1.44 M379.28,310.36
		v-2.16 M379.28,308.2h6.84 M386.12,308.2v-4.32 M390.8,303.88v4.68 M390.8,308.56h-1.44 M389.36,308.56l-1.8,1.8 M387.56,310.36
		h-5.76 M381.8,314.32l0.72,0.72 M382.52,315.04h2.16 M384.68,315.04l2.52,2.52 M387.2,317.56v2.16 M387.2,319.72l1.08,1.08
		 M388.28,320.8h7.2 M395.48,320.8l1.44,1.44 M396.92,322.24v10.08 M396.92,332.32h-4.32"/>
	<path fill="none" stroke="#000000" stroke-width="1.152" stroke-linecap="round" stroke-miterlimit="10" d="M390.8,330.52
		c0,0.994,0.806,1.8,1.8,1.8"/>
	<g>
		<defs>
			<rect id="SVGID_3_" x="371" y="274" width="49.2" height="64.2"/>
		</defs>
		<clipPath id="SVGID_4_">
			<use xlink:href="#SVGID_3_"  overflow="visible"/>
		</clipPath>
		
			<path clip-path="url(#SVGID_4_)" fill="none" stroke="#000000" stroke-width="1.152" stroke-linecap="round" stroke-linejoin="round" stroke-miterlimit="10" d="
			M390.8,330.52v-5.76 M390.8,324.76l-1.44-1.44 M389.36,323.32h-2.88 M386.48,323.32l-3.6-3.6 M382.88,319.72h-1.08 M376.04,323.32
			l0.36-0.36 M376.4,322.96V306.4 M376.4,306.4l1.44-1.44 M377.84,304.96h3.6 M381.44,304.96v-1.8 M381.44,303.16l1.8-1.8
			 M388.28,301.36h2.88 M391.16,301.36l2.16,2.16 M393.32,303.52v9 M393.32,312.52h1.44 M394.76,312.52l0.36,0.36 M395.12,312.88
			v5.4 M395.12,318.28h-5.04 M390.08,318.28l-0.36-0.36 M389.72,317.92v-3.96 M389.72,313.96l-2.16-2.16 M387.56,311.8v-1.44
			 M394.76,312.52h5.4 M400.16,312.52v7.56 M400.16,320.08l3.6,3.6 M403.76,323.68v6.84"/>
	</g>
	<path fill="none" stroke="#000000" stroke-width="1.152" stroke-linecap="round" stroke-miterlimit="10" d="M401.96,332.32
		c0.994,0,1.8-0.806,1.8-1.8"/>
	
		<path fill="none" stroke="#000000" stroke-width="1.152" stroke-linecap="round" stroke-linejoin="round" stroke-miterlimit="10" d="
		M401.96,332.32h-5.04 M393.68,305.68h4.68 M398.36,305.68l1.44-1.44 M399.8,304.24v-1.44 M397.64,302.44h-2.52 M395.12,302.44
		l-0.72-0.72 M394.4,301.72v-5.04 M394.4,296.68l-0.36-0.36 M394.04,296.32H383.6 M383.6,296.32V301 M400.16,298.84h1.44
		 M401.6,298.84l1.44-1.44 M403.04,297.4v-3.6 M403.04,293.8l-5.953-5.953"/>
	<path fill="none" stroke="#000000" stroke-width="0.9094" stroke-linecap="round" stroke-miterlimit="10" d="M396.805,287.693
		c0.038,0.114,0.12,0.209,0.228,0.263"/>
	
		<path fill="none" stroke="#000000" stroke-width="1.152" stroke-linecap="round" stroke-linejoin="round" stroke-miterlimit="10" d="
		M396.92,287.654v-7.894 M396.92,279.76h4.68"/>
	<path fill="none" stroke="#000000" stroke-width="1.152" stroke-linecap="round" stroke-miterlimit="10" d="M403.4,281.56
		c0-0.994-0.806-1.8-1.8-1.8"/>
	
		<path fill="none" stroke="#000000" stroke-width="1.152" stroke-linecap="round" stroke-linejoin="round" stroke-miterlimit="10" d="
		M403.4,281.56v8.28 M403.4,289.84l2.16,2.16 M405.56,292v7.2 M405.56,299.2l-2.52,2.52 M403.04,301.72v5.76 M403.04,307.48
		l-2.88,2.88 M400.16,310.36v2.16 M396.92,279.76h-4.32"/>
	<path fill="none" stroke="#000000" stroke-width="1.152" stroke-linecap="round" stroke-miterlimit="10" d="M392.6,279.76
		c-0.994,0-1.8,0.806-1.8,1.8"/>
	
		<line fill="none" stroke="#000000" stroke-width="1.152" stroke-linecap="round" stroke-linejoin="round" stroke-miterlimit="10" x1="390.8" y1="281.56" x2="390.8" y2="290.174"/>
	<path fill="none" stroke="#000000" stroke-width="1.152" stroke-linecap="round" stroke-miterlimit="10" d="M390.8,290.174
		c0,0.477,0.19,0.935,0.527,1.273"/>
	
		<path fill="none" stroke="#000000" stroke-width="1.152" stroke-linecap="round" stroke-linejoin="round" stroke-miterlimit="10" d="
		M391.327,291.447l1.273,1.273 M392.6,292.72h4.68 M397.28,292.72l1.44,1.44 M398.72,294.16v2.52 M398.72,296.68l-1.08,1.08
		 M397.64,297.76v0.36 M383.6,296.32h-1.414"/>
	<g>
		<defs>
			<rect id="SVGID_5_" x="371" y="274" width="49.2" height="64.2"/>
		</defs>
		<clipPath id="SVGID_6_">
			<use xlink:href="#SVGID_5_"  overflow="visible"/>
		</clipPath>
		
			<path clip-path="url(#SVGID_6_)" fill="none" stroke="#000000" stroke-width="1.152" stroke-linecap="round" stroke-miterlimit="10" d="
			M380.913,295.793c0.338,0.338,0.795,0.527,1.273,0.527"/>
		
			<line clip-path="url(#SVGID_6_)" fill="none" stroke="#000000" stroke-width="1.152" stroke-linecap="round" stroke-linejoin="round" stroke-miterlimit="10" x1="380.913" y1="295.793" x2="376.567" y2="291.447"/>
		
			<path clip-path="url(#SVGID_6_)" fill="none" stroke="#000000" stroke-width="1.152" stroke-linecap="round" stroke-miterlimit="10" d="
			M376.04,290.174c0,0.477,0.19,0.935,0.527,1.273"/>
		
			<path clip-path="url(#SVGID_6_)" fill="none" stroke="#000000" stroke-width="1.152" stroke-linecap="round" stroke-linejoin="round" stroke-miterlimit="10" d="
			M376.04,290.174v-9.309 M381.8,281.2v9.72"/>
	</g>
	<path fill="none" stroke="#000000" stroke-width="1.152" stroke-linecap="round" stroke-miterlimit="10" d="M381.8,290.92
		c0,0.994,0.806,1.8,1.8,1.8"/>
	<g>
		<defs>
			<rect id="SVGID_7_" x="371" y="274" width="49.2" height="64.2"/>
		</defs>
		<clipPath id="SVGID_8_">
			<use xlink:href="#SVGID_7_"  overflow="visible"/>
		</clipPath>
		
			<line clip-path="url(#SVGID_8_)" fill="none" stroke="#000000" stroke-width="1.152" stroke-linecap="round" stroke-linejoin="round" stroke-miterlimit="10" x1="383.6" y1="292.72" x2="392.6" y2="292.72"/>
		
			<path clip-path="url(#SVGID_8_)" fill="none" stroke="#000000" stroke-width="1.152" stroke-linecap="round" stroke-miterlimit="10" d="
			M377.48,279.4c-0.795,0-1.44,0.645-1.44,1.44"/>
		
			<line clip-path="url(#SVGID_8_)" fill="none" stroke="#000000" stroke-width="1.152" stroke-linecap="round" stroke-linejoin="round" stroke-miterlimit="10" x1="377.48" y1="279.4" x2="380" y2="279.4"/>
		
			<path clip-path="url(#SVGID_8_)" fill="none" stroke="#000000" stroke-width="1.152" stroke-linecap="round" stroke-miterlimit="10" d="
			M381.8,281.2c0-0.994-0.806-1.8-1.8-1.8"/>
	</g>
</g>
</svg>
