<?xml version="1.0" encoding="utf-8"?>
<!-- Generator: Adobe Illustrator 17.0.0, SVG Export Plug-In . SVG Version: 6.00 Build 0)  -->
<!DOCTYPE svg PUBLIC "-//W3C//DTD SVG 1.1//EN" "http://www.w3.org/Graphics/SVG/1.1/DTD/svg11.dtd">
<svg version="1.1" id="Layer_1" xmlns="http://www.w3.org/2000/svg" xmlns:xlink="http://www.w3.org/1999/xlink" x="0px" y="0px"
	 width="792px" height="612px" viewBox="0 0 792 612" enable-background="new 0 0 792 612" xml:space="preserve">
<g>
	<g>
		<defs>
			<rect id="SVGID_1_" x="348" y="220" width="96.24" height="172.68"/>
		</defs>
		<clipPath id="SVGID_2_">
			<use xlink:href="#SVGID_1_"  overflow="visible"/>
		</clipPath>
		
			<path clip-path="url(#SVGID_2_)" fill="none" stroke="#000000" stroke-width="0.792" stroke-linecap="round" stroke-linejoin="round" stroke-miterlimit="10" d="
			M407.796,363.934v4.5 M405.546,363.934v4.5 M403.296,363.934v4.5 M401.046,363.934v4.5 M398.796,363.934v4.5 M396.546,363.934v4.5
			 M394.296,363.934v4.5 M410.046,364.834v3.6 M386.646,363.034h4.05 M386.646,360.784h4.05 M386.646,358.534h5.4 M386.646,356.284
			h4.5 M386.646,354.034h4.5 M386.646,351.784h4.5 M386.646,349.534h4.5 M386.646,347.284h4.5 M386.646,345.034h3.6
			 M392.046,339.634v3.6 M394.296,339.634v4.5 M396.546,339.634v4.5 M398.796,339.634v4.5 M401.046,339.634v4.5 M403.296,339.634
			v4.5 M405.546,339.634v4.5 M407.796,339.634v4.5 M410.046,339.634v3.6 M411.846,345.034h3.15 M410.946,347.284h4.5
			 M410.946,349.534h4.5 M410.946,351.784h4.5 M410.946,354.034h4.5 M410.946,356.284h6.3 M410.946,358.534h4.5 M410.946,360.784
			h4.5 M411.846,363.034h3.6 M390.696,360.784v2.25 M392.046,358.534l0.45,0.45 M392.496,358.984v4.95 M392.496,363.934l-2.25,2.25
			 M392.046,343.234l0.9,0.9 M390.246,345.034l0.9,0.9 M411.846,345.034l-0.9,0.9 M410.046,343.234l-0.9,0.9 M411.846,363.034
			l-0.9-0.9 M410.046,364.834l-0.9-0.9 M398.796,344.134v2.25 M403.296,339.634v-3.15 M403.296,336.484l-0.45-0.45 M396.096,330.634
			v-4.5 M394.296,326.134v4.5 M354.696,359.434v4.5 M370.446,352.684h6.3 M367.296,350.884h11.7 M370.446,349.084h6.3
			 M380.796,357.184v-21.15 M382.596,356.734v-22.5 M386.646,356.284h-0.9 M385.746,356.284l-1.35-1.35 M384.396,354.934v-12.6
			 M378.996,350.884v-7.2 M354.696,352.234v4.05"/>
		
			<path clip-path="url(#SVGID_2_)" fill="none" stroke="#000000" stroke-width="0.72" stroke-linecap="round" stroke-linejoin="round" stroke-miterlimit="10" d="
			M349.296,390.034v0.45 M349.296,390.484h0.45"/>
	</g>
</g>
</svg>
