<?xml version="1.0" encoding="utf-8"?>
<!-- Generator: Adobe Illustrator 17.0.0, SVG Export Plug-In . SVG Version: 6.00 Build 0)  -->
<!DOCTYPE svg PUBLIC "-//W3C//DTD SVG 1.1//EN" "http://www.w3.org/Graphics/SVG/1.1/DTD/svg11.dtd">
<svg version="1.1" id="Layer_1" xmlns="http://www.w3.org/2000/svg" xmlns:xlink="http://www.w3.org/1999/xlink" x="0px" y="0px"
	 width="792px" height="612px" viewBox="0 0 792 612" enable-background="new 0 0 792 612" xml:space="preserve">
<g>
	
		<path fill="none" stroke="#000000" stroke-width="1.152" stroke-linecap="round" stroke-linejoin="round" stroke-miterlimit="10" d="
		M401.26,304.276v4.95 M401.26,309.226h3.6 M404.86,309.226h3.15 M408.01,309.226l0.9-0.9 M408.91,308.326h1.8 M410.71,308.326
		v-4.05 M410.71,304.276h-2.7 M408.01,304.276v0.9 M408.01,305.176h-1.35 M406.66,305.176l-0.9-0.9 M405.76,304.276h-4.5
		 M410.71,315.976v-4.05 M410.71,311.926h-3.15 M407.56,311.926l-2.7-2.7 M410.71,315.976h-3.15 M407.56,315.976l-3.6-3.6
		 M403.96,312.376h-1.35 M402.61,312.376l-0.9,0.9 M401.71,313.276v2.25 M401.71,315.526h-4.5 M397.21,315.526v4.95 M397.21,320.476
		h14.4 M411.61,320.476l1.8-1.8 M413.41,318.676v-6.75 M413.41,311.926h2.7 M416.11,311.926v8.1 M416.11,320.026l-3.6,3.6
		 M412.51,323.626h-18 M394.51,323.626l-3.15-3.15 M391.36,320.476v-6.3 M391.36,314.176l-7.65-7.65 M383.71,306.526v-3.15
		 M383.71,303.376l1.8-1.8 M385.51,301.576h13.05 M398.56,301.576l2.7,2.7 M413.41,308.326v-4.05 M413.41,304.276h6.3
		 M419.71,304.276l0.9-0.9 M420.61,303.376v-11.25 M420.61,292.126l-3.6-3.6 M417.01,288.526h-32.4 M384.61,288.526l-1.8,1.8
		 M382.81,290.326h-8.55 M374.26,290.326l-1.35-1.35 M372.91,288.976v-4.05 M372.91,284.926l1.35-1.35 M374.26,283.576h52.2
		 M426.46,283.576l1.35,1.35 M427.81,284.926v3.6 M427.81,288.526l-3.6,3.6 M424.21,292.126v16.2 M424.21,308.326h-10.8"/>
	
		<path fill="none" stroke="#000000" stroke-width="0.72" stroke-linecap="round" stroke-linejoin="round" stroke-miterlimit="10" d="
		M364.36,329.926v-4.05 M364.36,329.926h4.5"/>
</g>
</svg>
