<?xml version="1.0" encoding="utf-8"?>
<!-- Generator: Adobe Illustrator 17.0.0, SVG Export Plug-In . SVG Version: 6.00 Build 0)  -->
<!DOCTYPE svg PUBLIC "-//W3C//DTD SVG 1.1//EN" "http://www.w3.org/Graphics/SVG/1.1/DTD/svg11.dtd">
<svg version="1.1" id="Layer_1" xmlns="http://www.w3.org/2000/svg" xmlns:xlink="http://www.w3.org/1999/xlink" x="0px" y="0px"
	 width="792px" height="612px" viewBox="0 0 792 612" enable-background="new 0 0 792 612" xml:space="preserve">
<g>
	<g>
		<defs>
			<rect id="SVGID_1_" x="331" y="220" width="130.68" height="172.68"/>
		</defs>
		<clipPath id="SVGID_2_">
			<use xlink:href="#SVGID_1_"  overflow="visible"/>
		</clipPath>
		
			<path clip-path="url(#SVGID_2_)" fill="none" stroke="#000000" stroke-width="0.792" stroke-linecap="round" stroke-linejoin="round" stroke-miterlimit="10" d="
			M425.118,363.934v4.5 M422.869,363.934v4.5 M420.618,363.934v4.5 M418.369,363.934v4.5 M416.118,363.934v4.5 M413.869,363.934v4.5
			 M411.618,363.934v4.5 M427.369,364.834v3.6 M403.969,363.034h4.05 M403.969,360.784h4.05 M403.969,358.534h5.4 M403.069,356.284
			h5.4 M403.969,354.034h4.5 M403.969,351.784h4.5 M403.969,349.534h4.5 M403.969,347.284h4.5 M403.969,345.034h3.6
			 M409.369,339.634v3.6 M411.618,339.634v4.5 M413.869,339.634v4.5 M416.118,339.634v6.75 M418.369,339.634v4.5 M420.618,336.484
			v7.65 M422.869,339.634v4.5 M425.118,339.634v4.5 M427.369,339.634v3.6 M429.169,345.034h3.15 M428.269,347.284h4.5
			 M428.269,349.534h4.5 M428.269,351.784h4.5 M428.269,354.034h4.5 M428.269,356.284h6.3 M428.269,358.534h4.5 M428.269,360.784
			h4.5 M429.169,363.034h3.6 M408.018,360.784v2.25 M409.369,358.534l0.45,0.45 M409.818,358.984v4.95 M409.818,363.934l-2.25,2.25
			 M409.369,343.234l0.9,0.9 M407.569,345.034l0.9,0.9 M429.169,345.034l-0.9,0.9 M427.369,343.234l-0.9,0.9 M429.169,363.034
			l-0.9-0.9 M427.369,364.834l-0.9-0.9 M420.618,336.484l-0.45-0.45 M413.418,330.634v-4.5 M411.618,326.134l-0.013,4.491
			 M372.018,359.434v4.5 M387.769,352.684h6.3 M384.618,350.884h11.7 M387.791,349.111l6.278-0.027 M398.118,357.184v-21.15
			 M399.918,356.734v-22.5 M403.069,356.284l-1.35-1.35 M401.718,354.934v-12.6 M396.318,350.884v-7.2 M372.018,352.234v4.05"/>
		
			<path clip-path="url(#SVGID_2_)" fill="none" stroke="#000000" stroke-width="0.72" stroke-linecap="round" stroke-linejoin="round" stroke-miterlimit="10" d="
			M366.978,388.234v1.89 M366.978,390.124h2.25"/>
	</g>
	
		<path fill="none" stroke="#000000" stroke-width="0.792" stroke-linecap="round" stroke-linejoin="round" stroke-miterlimit="10" d="
		M380.586,308.584h12.42 M393.006,308.584v-0.036 M380.586,310.312h12.672"/>
</g>
</svg>
