<?xml version="1.0" encoding="utf-8"?>
<!-- Generator: Adobe Illustrator 17.0.0, SVG Export Plug-In . SVG Version: 6.00 Build 0)  -->
<!DOCTYPE svg PUBLIC "-//W3C//DTD SVG 1.1//EN" "http://www.w3.org/Graphics/SVG/1.1/DTD/svg11.dtd">
<svg version="1.1" id="Layer_1" xmlns="http://www.w3.org/2000/svg" xmlns:xlink="http://www.w3.org/1999/xlink" x="0px" y="0px"
	 width="792px" height="612px" viewBox="0 0 792 612" enable-background="new 0 0 792 612" xml:space="preserve">
<g>
	<g>
		<defs>
			<rect id="SVGID_1_" x="331" y="220" width="130.68" height="172.68"/>
		</defs>
		<clipPath id="SVGID_2_">
			<use xlink:href="#SVGID_1_"  overflow="visible"/>
		</clipPath>
		
			<path clip-path="url(#SVGID_2_)" fill="none" stroke="#000000" stroke-width="1.152" stroke-linecap="round" stroke-linejoin="round" stroke-miterlimit="10" d="
			M408.469,358.534v-12.6 M403.969,354.034v-9 M403.969,358.534v0.45 M403.969,358.984v1.35 M413.869,363.934h4.5 M420.618,363.934
			h2.25 M425.118,363.934h1.35 M413.869,368.434h10.35 M424.218,368.434h3.15 M428.269,356.284v5.85 M432.769,363.034v-4.5
			 M428.269,354.034v-8.1 M427.369,339.634h-4.5 M422.869,344.134h3.6 M420.618,344.134h-2.25 M418.369,339.634h-2.25
			 M413.869,339.634h-4.5 M413.869,344.134h-3.6 M411.605,363.925l0.013-18.441 M411.618,345.484l-1.35-1.35 M413.869,363.934v-15.3
			 M413.869,348.634l2.25-2.25 M424.218,368.434v4.5 M424.218,372.934h-4.5 M419.718,372.934v4.5 M419.718,377.434h4.05
			 M423.769,377.434l0.9-0.9 M424.669,376.534h3.6 M428.269,376.534l1.35,1.35 M429.618,377.884v7.65 M429.618,385.534l0.9,0.9
			 M430.518,386.434h6.3 M436.818,386.434h7.2 M444.018,386.434h8.55 M452.569,386.434l1.8-1.8 M454.369,384.634v-100.8
			 M448.069,255.934l-3.6-3.6 M444.469,252.334h-4.5 M439.969,252.334l-0.45,0.45 M439.518,252.784v4.95 M439.518,257.734h-4.5
			 M435.018,257.734v-4.95 M435.018,252.784h-4.95 M430.069,252.784l-0.45,0.45 M429.618,253.234v1.35 M429.618,254.584h-3.15
			 M426.469,254.584v-4.95 M426.469,249.634h33.3 M422.869,390.034v-7.65 M422.869,382.384l-0.45-0.45 M422.418,381.934h-3.15
			 M419.269,381.934l-4.5-4.5 M414.769,377.434v-4.05 M414.769,373.384l-2.25-2.25 M412.518,371.134h-29.7 M382.818,371.134
			l-7.2-7.2 M375.618,363.934l-3.433-0.04 M372.203,359.434h6.115 M378.318,359.434v2.7 M378.318,362.134l3.15,3.15
			 M381.469,365.284l3.15,3.15 M384.618,368.434h26.55 M413.869,339.634v-1.8 M413.869,337.834l-0.45-0.45 M413.418,337.384
			l0.185-6.759 M413.589,326.134h3.429 M417.018,326.134v9.9 M417.018,336.034h3.15 M408.018,375.634v9 M408.018,384.634h-7.2
			 M400.818,384.634v-9 M400.818,375.634h7.2 M400.818,375.634h-7.2 M393.618,375.634h-7.2 M386.418,375.634h-7.2 M379.218,375.634
			v9 M379.218,384.634h7.2 M386.418,384.634h7.2 M393.618,384.634h7.2 M393.618,375.634v9 M386.418,375.634v9 M379.218,375.634
			h-3.15 M376.069,375.634l-2.7-2.7 M373.369,372.934l-0.45-0.45 M372.918,372.484h-4.05 M368.869,372.484v9.9 M368.869,382.384
			l2.25,2.25 M371.118,384.634h8.1 M430.969,363.034v8.55 M430.969,371.584l-1.8,1.8 M429.169,373.384h-4.5 M424.669,373.384
			l-0.45-0.45 M422.869,363.934v-16.2 M422.869,347.734l3.6-3.6 M425.118,363.934v-14.85 M425.118,349.084l3.15-3.15
			 M432.769,347.284h1.35 M434.118,347.284l4.5-4.5 M438.618,342.784h3.15 M441.769,342.784h2.25 M444.018,342.784v4.95
			 M444.018,347.734h-6.3 M437.718,347.734l-1.8,1.8 M435.918,349.534h-3.15 M432.769,351.784h6.3 M439.069,351.784l0.45,0.45
			 M439.518,352.234h4.5 M444.018,352.234v-4.5 M432.769,354.034h3.6 M436.369,354.034l2.7,2.7 M439.069,356.734h4.95
			 M444.018,356.734v-4.5 M436.818,386.434v-14.4 M436.818,372.034l-1.8-1.8 M435.018,370.234v-4.95 M435.018,365.284l0.45-0.45
			 M435.469,364.834v-7.2 M435.469,357.634l-0.9-0.9 M444.018,386.434v-12.15 M444.018,374.284l-5.4-5.4 M438.618,368.884v-11.7
			 M438.618,357.184l0.45-0.45 M432.318,345.034l6.75-6.75 M439.069,338.284v-21.6 M441.769,316.234v26.55 M429.618,345.034l2.7-2.7
			 M432.318,342.334v-79.65 M432.318,262.684l-2.7-2.7 M429.618,259.984v-1.8 M429.618,258.184h-3.15 M426.469,258.184v4.05
			 M426.469,262.234h-2.7 M423.769,262.234v-4.05 M423.769,258.184h-2.7 M421.069,258.184v1.35 M421.069,259.534h-9
			 M412.069,259.534l-2.25-2.25 M409.818,257.284v-13.05 M409.818,244.234v-0.45 M409.818,243.784l-14.4-14.4 M395.418,229.384v-3.6
			 M395.418,225.784l-0.45-0.45 M394.969,225.334h-5.85 M389.118,225.334l-0.45,0.45 M388.669,225.784v4.95 M388.669,230.734
			l2.25,2.25 M390.918,232.984h3.15 M394.069,232.984l9.45,9.45 M403.518,242.434v18.45 M403.518,260.884l1.35,1.35
			 M404.869,262.234v4.05 M404.869,266.284h4.05 M408.918,266.284l4.05-4.05 M412.969,262.234h7.65 M420.618,262.234l0.45,0.45
			 M421.069,262.684v1.35 M421.069,264.034l1.35,1.35 M427.369,265.384v74.25 M422.418,265.384h4.95 M409.818,244.234h6.3
			 M416.118,244.234l5.85,5.85 M421.969,250.084h1.8 M423.769,250.084v4.5 M423.769,254.584h-2.7 M421.069,254.584v-1.8
			 M421.069,252.784l-0.9-0.9 M420.169,251.884h-4.05 M416.118,251.884v7.2 M439.518,257.734v4.05 M435.018,257.734v4.05
			 M408.918,266.284v4.05 M404.869,266.284v4.05 M413.589,326.134l0.279-15.75 M411.169,304.534l0.018,20.723 M411.186,325.257
			l0.239,0.859 M411.425,330.549l-0.45,0.45 M410.975,330.998l-4.306,4.586 M406.669,335.584v9 M407.438,366.031l-21.469,0.153
			 M385.969,366.184l-1.8-1.8 M384.169,364.384v-5.4 M384.169,358.984l2.25-2.25 M386.418,356.734h7.65 M394.069,356.734v-3.6
			 M387.769,352.864h-1.35 M386.418,352.864l-3.6,3.42 M382.818,356.284l-1.35,1.35 M381.469,357.634v7.65 M403.969,363.034h-9.45
			 M394.518,363.034l-0.9,0.9 M393.618,363.934h-6.3 M387.318,363.934v-4.5 M387.318,359.434h9 M396.318,359.434l1.611-1.782
			 M400.108,356.707l2.061,2.277 M402.169,358.984h1.8 M397.929,357.652v-0.45 M384.582,351.059l-1.575,1.498 M383.008,352.558
			l-4.689,0.126 M378.318,352.684l-0.45-0.45"/>
		
			<path clip-path="url(#SVGID_2_)" fill="none" stroke="#000000" stroke-width="1.152" stroke-linecap="round" stroke-linejoin="round" stroke-miterlimit="10" d="
			M377.869,352.234l-5.661,0.018 M372.181,356.248l10.638,0.036 M394.05,348.863l0.018-3.379 M394.069,345.484h-8.1
			 M385.969,345.484l-1.35-1.35 M384.618,344.134v-6.3 M384.618,337.834l-0.9-0.9 M387.786,348.913l-0.031-0.743 M387.755,348.17
			l-5.837,0.014 M381.918,348.184l-3.15-3.15 M369.318,345.034v21.6 M369.318,366.634l1.35,1.35 M370.669,367.984h2.7
			 M373.369,367.984v4.95 M368.869,372.484h-1.8 M383.718,336.934h-16.65 M378.769,345.034h-9.45 M396.318,343.684v-4.95
			 M396.318,338.734l-20.25-20.25 M378.318,316.684l19.35,19.35 M399.918,334.684l-0.45-0.45 M399.469,334.234l-18.9-18.9
			 M401.718,342.334l0.9-0.9 M402.618,341.434v-26.55 M403.069,325.234l8.118,0.023 M403.069,331.084l7.906-0.086 M431.418,228.034
			v1.8 M438.169,228.034v1.35 M433.669,225.784h1.8 M433.669,232.084h1.8"/>
		
			<path clip-path="url(#SVGID_2_)" fill="none" stroke="#000000" stroke-width="0.72" stroke-linecap="round" stroke-linejoin="round" stroke-miterlimit="10" d="
			M366.978,388.234v1.89 M366.978,390.124h2.25"/>
	</g>
	
		<path fill="none" stroke="#000000" stroke-width="1.152" stroke-linecap="round" stroke-linejoin="round" stroke-miterlimit="10" d="
		M378.318,316.684v-8.1 M378.318,308.584l0.427-0.189 M378.746,308.395h1.8 M393.137,308.382l0.031-4.748 M393.169,303.634h-16.65
		 M380.73,310.47l-0.162,4.864 M376.069,318.484v-14.4 M376.069,304.084l0.45-0.45 M380.569,298.234h14.85 M395.418,298.234l0.9,0.9
		 M396.318,299.134v10.35 M396.318,309.484l-1.395,1.026 M394.924,310.51h-1.8 M396.318,309.934h1.35 M397.669,309.934l4.95,4.95
		 M399.469,334.234v-17.1 M399.469,317.134l-2.7-2.7 M396.769,314.434h-15.75 M380.118,298.234v4.95 M380.118,297.784v-5.4
		 M380.118,292.384h25.2 M405.318,292.384l9.45,9.45 M414.769,301.834v7.65 M414.769,309.484l-0.9,0.9 M411.169,304.534l-6.75-6.75
		 M404.418,297.784h-8.55 M395.869,297.784l-0.45,0.45 M381.469,276.184h10.8 M393.169,281.134h-11.7 M381.469,281.134l-0.9-0.9
		 M380.569,280.234v-1.8 M380.569,278.434h-5.85 M374.718,278.434l-0.9,0.9 M373.818,279.334v10.35 M373.818,289.684l0.9,0.9
		 M374.718,290.584h4.5 M379.218,290.584l1.8-1.8 M381.018,288.784v-2.25 M381.018,286.534h12.15 M393.169,286.534l0.45-0.45
		 M393.618,286.084v-4.5 M393.618,281.584l-0.45-0.45 M454.369,283.834l-0.9-0.9 M453.469,282.934h-14.85 M438.618,282.934l-1.8-1.8
		 M436.818,281.134v-5.85 M436.818,275.284l0.9-0.9 M437.718,274.384h6.75 M444.469,274.384l2.7-2.7 M447.169,271.684v-14.85
		 M447.169,256.834l0.45-0.45 M441.769,316.234l1.35-1.35 M443.118,314.884h6.3 M449.418,314.884l0.45-0.45 M449.869,314.434v-4.5
		 M449.869,309.934h-12.15 M437.718,309.934l-0.45,0.45 M437.269,310.384v4.5 M437.269,314.884l1.8,1.8 M379.885,292.235h0.036
		 M379.921,292.235v-2.196 M393.614,286.183h2.507 M396.121,286.183v6.129"/>
</g>
</svg>
