<?xml version="1.0" encoding="utf-8"?>
<!-- Generator: Adobe Illustrator 17.0.0, SVG Export Plug-In . SVG Version: 6.00 Build 0)  -->
<!DOCTYPE svg PUBLIC "-//W3C//DTD SVG 1.1//EN" "http://www.w3.org/Graphics/SVG/1.1/DTD/svg11.dtd">
<svg version="1.1" id="Layer_1" xmlns="http://www.w3.org/2000/svg" xmlns:xlink="http://www.w3.org/1999/xlink" x="0px" y="0px"
	 width="792px" height="612px" viewBox="0 0 792 612" enable-background="new 0 0 792 612" xml:space="preserve">
<g>
	<g>
		<defs>
			<rect id="SVGID_1_" x="349" y="259" width="93.24" height="94.92"/>
		</defs>
		<clipPath id="SVGID_2_">
			<use xlink:href="#SVGID_1_"  overflow="visible"/>
		</clipPath>
		
			<path clip-path="url(#SVGID_2_)" fill="none" stroke="#000000" stroke-width="1.152" stroke-linecap="round" stroke-linejoin="round" stroke-miterlimit="10" d="
			M369.432,325.975l0.45-0.45 M370.107,325.525h15.75 M385.857,325.525l0.675-0.675 M386.532,324.85v-5.175 M386.532,319.675
			l0.225-0.225 M386.757,319.45h4.5 M391.257,319.45l0.9,0.9 M392.157,320.35v6.3 M392.157,326.65l0.675,0.675 M392.832,327.325
			l0.225,0.225 M393.057,327.55v2.25 M393.057,329.8l-0.45,0.45 M392.607,330.25h-6.525 M386.083,330.25l-0.9,0.9 M385.183,331.15
			v6.3 M385.183,337.45l2.025,2.025 M387.207,339.475v3.15 M387.207,342.625l-0.675,0.675 M386.532,343.3h-3.825 M382.707,343.3
			l-0.225-0.225 M382.483,343.075v-13.05 M382.483,330.025l-1.575-1.575 M380.907,328.45h-2.025 M378.883,328.45l-0.225-0.225
			 M369.207,337.45h2.025 M375.732,337.45h2.25 M372.132,340.825h-2.475 M369.657,340.825v1.8 M375.283,340.825h2.7
			 M377.983,340.825v1.8 M375.507,347.8h2.475 M377.983,347.8v-1.575 M372.132,347.8h-2.475 M369.657,347.8V346 M356.607,340.825
			h-2.475 M354.132,340.825v1.8 M359.757,340.825h2.7 M362.457,340.825v1.8 M359.983,347.8h2.475 M362.457,347.8v-1.575
			 M356.607,347.8h-2.475 M354.132,347.8V346 M372.132,315.4h-2.475 M369.657,315.4v1.575 M375.283,315.4h2.7 M377.983,315.4v1.575
			 M375.507,322.375h2.475 M377.983,322.375v-1.8 M372.132,322.375h-2.475 M369.657,322.375v-2.025 M356.607,315.4h-2.475
			 M354.132,315.4v1.575 M359.757,315.4h2.7 M362.457,315.4v1.575 M359.983,322.375h2.475 M362.457,322.375v-1.8 M356.607,322.375
			h-2.475 M354.132,322.375v-2.025 M386.757,343.3h4.5 M391.257,343.3v4.05 M391.257,347.35l-0.225,0.225 M391.032,347.575h-3.825
			 M387.207,347.575l-0.45,0.45 M386.757,348.025h-4.05 M382.707,348.025l-0.225-0.225 M382.483,347.8v-4.5 M391.257,343.075v-3.6
			 M391.257,339.475l-3.375-3.375 M387.883,336.1v-3.15 M387.883,332.95l0.225-0.225 M388.107,332.725h3.375 M391.483,332.725
			l2.925,2.925 M394.407,335.65h5.175 M399.583,335.65l0.225-0.225 M399.807,335.425v-2.25 M399.807,333.175l-0.225-0.225
			 M399.583,332.95h-4.725 M394.857,332.95l-2.475-2.475 M393.283,330.25h7.425 M400.707,330.25l0.9-0.9 M401.607,329.35h4.275
			 M405.883,329.35l4.5-4.5 M410.383,324.85v-23.175 M410.383,301.675l-4.95-4.95 M405.432,296.725h-10.35 M395.083,296.725
			l-0.9-0.9 M394.183,295.825V285.7 M394.183,285.7l0.45-0.45 M394.632,285.25h5.175 M399.807,285.25l1.125,1.125 M400.932,286.375
			h8.55 M409.483,286.375l1.575-1.575 M411.057,284.8v-3.825 M411.057,280.975l-1.35-1.35 M409.707,279.625h-8.775 M400.932,279.625
			l-1.35,1.35 M399.583,280.975h-6.3 M393.283,280.975L391.257,283 M391.257,283h-4.725 M386.532,283l-0.675,0.675 M385.857,283.675
			v3.6 M385.857,287.275v0.225 M390.583,294.7l0.675,0.675 M391.257,295.375v1.575 M391.257,296.95l2.7,2.7 M393.957,299.65h11.025
			 M404.983,299.65l2.7,2.7 M407.683,302.35v21.6 M407.683,323.95l-2.7,2.7 M404.983,326.65h-2.025 M402.957,326.65l-0.675-0.675
			 M402.283,325.975V321.7 M402.283,321.7l-0.225-0.225 M402.057,321.475h-2.25 M399.807,321.475l-0.225,0.225 M399.583,321.7v5.175
			 M399.583,326.875l-0.45,0.45 M399.132,327.325h-6.3 M386.532,319.225V313.6 M386.532,313.6l0.45-0.45 M386.983,313.15h6.075
			 M393.057,313.15l2.925,2.925 M395.983,316.075v2.25 M395.983,318.325l0.675,0.675 M396.657,319h0.9 M397.557,319l2.25,2.25
			 M395.083,308.2l2.25,2.25 M397.332,310.45l2.925,2.925 M400.257,313.375v5.4 M400.257,318.775l-1.35,1.35 M383.832,313.375v-4.05
			 M383.832,309.325h-5.85 M377.983,309.325v-4.5 M377.983,304.825h5.4 M391.483,305.05v-2.475 M391.483,302.575h0.225
			 M391.707,302.575h5.625 M397.332,302.575v7.875 M397.557,304.6h6.75 M404.307,304.6l0.675,0.675 M404.983,305.275V319
			 M404.983,319l-0.225,0.225 M404.757,319.225v0.225 M404.757,319.45l-2.025,2.025 M391.257,343.3h4.725 M395.983,343.3
			l0.225-0.225 M396.207,343.075v-7.2 M405.883,338.35l-1.125,1.125 M404.757,339.475v6.3 M412.407,265.9h-4.95 M407.457,265.9
			l-0.675,0.675 M372.678,275.302h-10.125 M390.583,294.7h-5.175 M385.407,294.7l-0.675-0.675 M384.732,294.025h-16.2
			 M368.532,294.025l-0.9-0.9 M367.632,293.125v-17.406 M372.984,275.527l0.048,13.773 M373.032,289.3l0.45,0.45 M373.483,289.75
			h0.9 M374.383,289.75l2.475-2.475 M376.857,287.275h9 M362.232,275.446V294.7 M362.232,294.7l2.925,2.925 M365.157,297.625h18.9
			 M384.057,297.625l2.475,2.475 M386.532,300.1v1.575 M386.532,301.675l0.45,0.45 M386.983,302.125h4.275 M391.257,302.125
			l0.45,0.45 M395.757,276.925h4.275 M400.032,276.925v3.375 M390.357,282.55v-4.275 M386.307,282.775V278.5 M386.307,313.375
			h-2.475 M383.832,313.375h-2.025 M386.307,317.65h-4.5 M386.083,319.9v-0.225 M386.083,319.675h-4.05 M386.307,323.725h-4.725
			 M374.253,263.76v9.225 M360.964,263.644v10.125 M354.903,263.481v10.575 M380.232,263.577v10.575 M399.132,267.475v6.975
			 M369.432,325.975v8.775 M378.657,328.675v6.075"/>
	</g>
	
		<path fill="none" stroke="#000000" stroke-width="0.0071" stroke-linecap="round" stroke-linejoin="round" stroke-miterlimit="10" d="
		M352.332,347.575v2.025 M352.332,349.6h3.6"/>
	
		<line fill="none" stroke="#000000" stroke-width="1.152" stroke-linecap="round" stroke-linejoin="round" stroke-miterlimit="10" x1="383.518" y1="304.945" x2="383.851" y2="305.278"/>
	<path fill="none" stroke="#000000" stroke-width="1.152" stroke-linecap="round" stroke-miterlimit="10" d="M383.851,305.278
		c0.338,0.338,0.795,0.527,1.273,0.527"/>
	
		<path fill="none" stroke="#000000" stroke-width="1.152" stroke-linecap="round" stroke-linejoin="round" stroke-miterlimit="10" d="
		M385.124,305.805h5.999 M391.123,305.805l0.281-0.281"/>
	<path fill="none" stroke="#000000" stroke-width="0.9221" stroke-linecap="round" stroke-miterlimit="10" d="M391.486,305.605
		c0.086-0.086,0.135-0.204,0.135-0.326"/>
	<path fill="none" stroke="#000000" stroke-width="0.5771" stroke-linecap="round" stroke-miterlimit="10" d="M383.613,309.487
		C383.613,309.487,383.613,309.487,383.613,309.487c0.077,0,0.151-0.031,0.205-0.086"/>
	
		<path fill="none" stroke="#000000" stroke-width="1.152" stroke-linecap="round" stroke-linejoin="round" stroke-miterlimit="10" d="
		M383.614,309.199l0.86-0.86 M384.475,308.339h10.531"/>
	<path fill="none" stroke="#000000" stroke-width="0.9026" stroke-linecap="round" stroke-miterlimit="10" d="M395.006,308.464
		c0.12,0,0.234-0.048,0.319-0.132"/>
	
		<line fill="none" stroke="#000000" stroke-width="1.152" stroke-linecap="round" stroke-linejoin="round" stroke-miterlimit="10" x1="390.74" y1="283.526" x2="390.74" y2="286.422"/>
	<path fill="none" stroke="#000000" stroke-width="0.7396" stroke-linecap="round" stroke-miterlimit="10" d="M390.534,286.422
		c0,0.098,0.039,0.192,0.108,0.261"/>
	
		<path fill="none" stroke="#000000" stroke-width="1.152" stroke-linecap="round" stroke-linejoin="round" stroke-miterlimit="10" d="
		M386.244,294.188v-3.06 M390.454,294.474v-2.829"/>
	<path fill="none" stroke="#000000" stroke-width="0.9026" stroke-linecap="round" stroke-miterlimit="10" d="M390.461,291.326
		c-0.085,0.085-0.132,0.199-0.132,0.319"/>
	
		<line fill="none" stroke="#000000" stroke-width="1.152" stroke-linecap="round" stroke-linejoin="round" stroke-miterlimit="10" x1="406.095" y1="338.221" x2="410.515" y2="338.221"/>
	<path fill="none" stroke="#000000" stroke-width="1.152" stroke-linecap="round" stroke-miterlimit="10" d="M411.788,338.748
		c-0.338-0.338-0.795-0.527-1.273-0.527"/>
	
		<path fill="none" stroke="#000000" stroke-width="1.152" stroke-linecap="round" stroke-linejoin="round" stroke-miterlimit="10" d="
		M411.788,338.748l0.716,0.716 M412.504,339.464v6.521"/>
	<path fill="none" stroke="#000000" stroke-width="1.152" stroke-linecap="round" stroke-miterlimit="10" d="M411.977,347.258
		c0.338-0.338,0.527-0.795,0.527-1.273"/>
	
		<path fill="none" stroke="#000000" stroke-width="1.152" stroke-linecap="round" stroke-linejoin="round" stroke-miterlimit="10" d="
		M411.977,347.258l-0.143,0.142 M411.834,347.401h-4.947"/>
	<path fill="none" stroke="#000000" stroke-width="1.152" stroke-linecap="round" stroke-miterlimit="10" d="M405.615,346.873
		c0.338,0.338,0.795,0.527,1.273,0.527"/>
	
		<path fill="none" stroke="#000000" stroke-width="1.152" stroke-linecap="round" stroke-linejoin="round" stroke-miterlimit="10" d="
		M405.615,346.873l-0.764-0.764 M396.481,338.125h7.29"/>
	<path fill="none" stroke="#000000" stroke-width="1.152" stroke-linecap="round" stroke-miterlimit="10" d="M405.044,338.653
		c-0.338-0.338-0.795-0.527-1.273-0.527"/>
	
		<path fill="none" stroke="#000000" stroke-width="1.152" stroke-linecap="round" stroke-linejoin="round" stroke-miterlimit="10" d="
		M405.043,338.653l0.238,0.238 M404.994,346.875h-6.334"/>
	<path fill="none" stroke="#000000" stroke-width="1.152" stroke-linecap="round" stroke-miterlimit="10" d="M397.388,346.348
		c0.338,0.338,0.795,0.527,1.273,0.527"/>
	
		<path fill="none" stroke="#000000" stroke-width="1.152" stroke-linecap="round" stroke-linejoin="round" stroke-miterlimit="10" d="
		M397.387,346.348l-1.003-1.003 M396.385,345.345v-1.67"/>
	<path fill="none" stroke="#000000" stroke-width="1.152" stroke-linecap="round" stroke-miterlimit="10" d="M396.385,343.675
		c0-0.217-0.086-0.424-0.239-0.577"/>
	
		<line fill="none" stroke="#000000" stroke-width="1.152" stroke-linecap="round" stroke-linejoin="round" stroke-miterlimit="10" x1="411.069" y1="308.244" x2="416.769" y2="308.244"/>
	<path fill="none" stroke="#000000" stroke-width="0.9026" stroke-linecap="round" stroke-miterlimit="10" d="M416.769,308.369
		c0.12,0,0.234-0.048,0.319-0.132"/>
	
		<line fill="none" stroke="#000000" stroke-width="1.152" stroke-linecap="round" stroke-linejoin="round" stroke-miterlimit="10" x1="417" y1="308.148" x2="417" y2="301.053"/>
	<path fill="none" stroke="#000000" stroke-width="1.152" stroke-linecap="round" stroke-miterlimit="10" d="M417.527,299.781
		c-0.338,0.338-0.527,0.795-0.527,1.273"/>
	
		<path fill="none" stroke="#000000" stroke-width="1.152" stroke-linecap="round" stroke-linejoin="round" stroke-miterlimit="10" d="
		M417.527,299.78l0.429-0.429 M417.957,299.351v-2.601"/>
	<path fill="none" stroke="#000000" stroke-width="1.152" stroke-linecap="round" stroke-miterlimit="10" d="M417.957,296.75
		c0-0.477-0.19-0.935-0.527-1.273"/>
	
		<path fill="none" stroke="#000000" stroke-width="1.152" stroke-linecap="round" stroke-linejoin="round" stroke-miterlimit="10" d="
		M417.429,295.478l-0.621-0.621 M416.809,294.857h-6.192"/>
	<path fill="none" stroke="#000000" stroke-width="1.152" stroke-linecap="round" stroke-miterlimit="10" d="M409.344,294.33
		c0.338,0.338,0.795,0.527,1.273,0.527"/>
	
		<path fill="none" stroke="#000000" stroke-width="1.152" stroke-linecap="round" stroke-linejoin="round" stroke-miterlimit="10" d="
		M409.344,294.33l-4.493-4.493 M404.851,289.837v-3.279"/>
	<path fill="none" stroke="#000000" stroke-width="0.7393" stroke-linecap="round" stroke-miterlimit="10" d="M404.753,286.296
		c-0.069,0.069-0.108,0.163-0.108,0.261"/>
	
		<path fill="none" stroke="#000000" stroke-width="1.152" stroke-linecap="round" stroke-linejoin="round" stroke-miterlimit="10" d="
		M394.567,289.502h3.3 M397.867,289.502v0.048 M412.791,265.836h0.073"/>
	<path fill="none" stroke="#000000" stroke-width="1.152" stroke-linecap="round" stroke-miterlimit="10" d="M413.556,266.122
		c-0.184-0.184-0.433-0.287-0.693-0.287"/>
	
		<line fill="none" stroke="#000000" stroke-width="1.152" stroke-linecap="round" stroke-linejoin="round" stroke-miterlimit="10" x1="413.556" y1="266.123" x2="413.556" y2="270.397"/>
	<path fill="none" stroke="#000000" stroke-width="1.152" stroke-linecap="round" stroke-miterlimit="10" d="M413.556,270.397
		c0,0.477,0.19,0.935,0.527,1.273"/>
	
		<path fill="none" stroke="#000000" stroke-width="1.152" stroke-linecap="round" stroke-linejoin="round" stroke-miterlimit="10" d="
		M414.083,271.669l0.716,0.716 M414.799,272.386h11.696"/>
	<path fill="none" stroke="#000000" stroke-width="1.152" stroke-linecap="round" stroke-miterlimit="10" d="M426.495,272.386
		c0.477,0,0.935-0.19,1.273-0.527"/>
	
		<path fill="none" stroke="#000000" stroke-width="1.152" stroke-linecap="round" stroke-linejoin="round" stroke-miterlimit="10" d="
		M427.768,271.858l1.479-1.479 M429.247,270.38h4.037"/>
	<path fill="none" stroke="#000000" stroke-width="1.152" stroke-linecap="round" stroke-miterlimit="10" d="M434.557,270.907
		c-0.338-0.338-0.795-0.527-1.273-0.527"/>
	
		<path fill="none" stroke="#000000" stroke-width="1.152" stroke-linecap="round" stroke-linejoin="round" stroke-miterlimit="10" d="
		M434.557,270.907l1.291,1.291 M435.848,272.197v3.273"/>
	<path fill="none" stroke="#000000" stroke-width="1.152" stroke-linecap="round" stroke-miterlimit="10" d="M435.32,276.743
		c0.338-0.338,0.527-0.795,0.527-1.273"/>
	
		<path fill="none" stroke="#000000" stroke-width="1.152" stroke-linecap="round" stroke-linejoin="round" stroke-miterlimit="10" d="
		M435.32,276.743l-1.099,1.099 M434.221,277.842h-6.525"/>
	<path fill="none" stroke="#000000" stroke-width="1.152" stroke-linecap="round" stroke-miterlimit="10" d="M426.424,277.315
		c0.338,0.338,0.795,0.527,1.273,0.527"/>
	
		<path fill="none" stroke="#000000" stroke-width="1.152" stroke-linecap="round" stroke-linejoin="round" stroke-miterlimit="10" d="
		M426.424,277.315l-0.621-0.621 M425.803,276.694h-6.238"/>
	<path fill="none" stroke="#000000" stroke-width="1.152" stroke-linecap="round" stroke-miterlimit="10" d="M419.565,276.694
		c-0.477,0-0.935,0.19-1.273,0.527"/>
	
		<path fill="none" stroke="#000000" stroke-width="1.152" stroke-linecap="round" stroke-linejoin="round" stroke-miterlimit="10" d="
		M418.292,277.221l-1.099,1.099 M417.193,278.321v8.248"/>
	<path fill="none" stroke="#000000" stroke-width="1.152" stroke-linecap="round" stroke-miterlimit="10" d="M417.193,286.569
		c0,0.477,0.19,0.935,0.527,1.273"/>
	
		<path fill="none" stroke="#000000" stroke-width="1.152" stroke-linecap="round" stroke-linejoin="round" stroke-miterlimit="10" d="
		M417.72,287.842l0.429,0.429 M418.15,288.271v4.039"/>
	<path fill="none" stroke="#000000" stroke-width="1.152" stroke-linecap="round" stroke-miterlimit="10" d="M417.623,293.582
		c0.338-0.338,0.527-0.795,0.527-1.273"/>
	
		<path fill="none" stroke="#000000" stroke-width="1.152" stroke-linecap="round" stroke-linejoin="round" stroke-miterlimit="10" d="
		M417.623,293.582l-0.908,0.908 M406.67,267.127v5.187"/>
	<path fill="none" stroke="#000000" stroke-width="1.152" stroke-linecap="round" stroke-miterlimit="10" d="M406.67,272.313
		c0,0.477,0.19,0.935,0.527,1.273"/>
	
		<path fill="none" stroke="#000000" stroke-width="1.152" stroke-linecap="round" stroke-linejoin="round" stroke-miterlimit="10" d="
		M407.197,273.586l1.577,1.577 M408.774,275.163h2.507"/>
	<path fill="none" stroke="#000000" stroke-width="1.152" stroke-linecap="round" stroke-miterlimit="10" d="M412.554,275.691
		c-0.338-0.338-0.795-0.527-1.273-0.527"/>
	
		<path fill="none" stroke="#000000" stroke-width="1.152" stroke-linecap="round" stroke-linejoin="round" stroke-miterlimit="10" d="
		M412.554,275.691l0.717,0.717 M413.271,276.407v5.378"/>
	<path fill="none" stroke="#000000" stroke-width="1.152" stroke-linecap="round" stroke-miterlimit="10" d="M412.744,283.058
		c0.338-0.338,0.527-0.795,0.527-1.273"/>
	<g>
		<defs>
			<rect id="SVGID_3_" x="349" y="259" width="93.24" height="94.92"/>
		</defs>
		<clipPath id="SVGID_4_">
			<use xlink:href="#SVGID_3_"  overflow="visible"/>
		</clipPath>
		
			<path clip-path="url(#SVGID_4_)" fill="none" stroke="#000000" stroke-width="1.152" stroke-linecap="round" stroke-linejoin="round" stroke-miterlimit="10" d="
			M412.744,283.058l-1.482,1.482 M428.099,263.108h6.195"/>
		
			<path clip-path="url(#SVGID_4_)" fill="none" stroke="#000000" stroke-width="1.152" stroke-linecap="round" stroke-miterlimit="10" d="
			M434.987,263.395c-0.184-0.184-0.433-0.287-0.693-0.287"/>
		
			<path clip-path="url(#SVGID_4_)" fill="none" stroke="#000000" stroke-width="0.72" stroke-linecap="round" stroke-linejoin="round" stroke-miterlimit="10" d="
			M352.332,342.4v7.2 M352.332,349.6h7.2"/>
	</g>
</g>
</svg>
