<?xml version="1.0" encoding="utf-8"?>
<!-- Generator: Adobe Illustrator 17.0.0, SVG Export Plug-In . SVG Version: 6.00 Build 0)  -->
<!DOCTYPE svg PUBLIC "-//W3C//DTD SVG 1.1//EN" "http://www.w3.org/Graphics/SVG/1.1/DTD/svg11.dtd">
<svg version="1.1" id="Layer_1" xmlns="http://www.w3.org/2000/svg" xmlns:xlink="http://www.w3.org/1999/xlink" x="0px" y="0px"
	 width="792px" height="576px" viewBox="0 0 792 576" enable-background="new 0 0 792 576" xml:space="preserve">
<g>
	<g>
		<defs>
			<rect id="SVGID_1_" x="344" y="201" width="103.44" height="175.44"/>
		</defs>
		<clipPath id="SVGID_2_">
			<use xlink:href="#SVGID_1_"  overflow="visible"/>
		</clipPath>
		
			<path clip-path="url(#SVGID_2_)" fill="none" stroke="#000000" stroke-width="0.72" stroke-linecap="round" stroke-linejoin="round" stroke-miterlimit="10" d="
			M348.896,370.464v2.52 M348.896,372.984h2.88"/>
	</g>
	
		<path fill="none" stroke="#000000" stroke-width="1.152" stroke-linecap="round" stroke-linejoin="round" stroke-miterlimit="10" d="
		M408.656,237.084v-4.5 M408.656,237.264h2.445"/>
	<path fill="none" stroke="#000000" stroke-width="1.152" stroke-linecap="round" stroke-miterlimit="10" d="M411.101,237.264
		c0.163,0,0.319-0.065,0.435-0.18"/>
	
		<path fill="none" stroke="#000000" stroke-width="1.152" stroke-linecap="round" stroke-linejoin="round" stroke-miterlimit="10" d="
		M411.536,237.084v-4.32 M414.236,233.124v4.742"/>
	<path fill="none" stroke="#000000" stroke-width="1.152" stroke-linecap="round" stroke-miterlimit="10" d="M414.025,238.375
		c0.135-0.135,0.211-0.318,0.211-0.509"/>
	
		<path fill="none" stroke="#000000" stroke-width="1.152" stroke-linecap="round" stroke-linejoin="round" stroke-miterlimit="10" d="
		M414.025,238.375l-1.409,1.409 M412.616,239.784h-17.522"/>
	<path fill="none" stroke="#000000" stroke-width="1.152" stroke-linecap="round" stroke-miterlimit="10" d="M395.094,239.784
		c-0.191,0-0.374,0.076-0.509,0.211"/>
	
		<path fill="none" stroke="#000000" stroke-width="1.152" stroke-linecap="round" stroke-linejoin="round" stroke-miterlimit="10" d="
		M394.585,239.995l-1.229,1.229 M393.356,241.224h-4.86 M388.496,241.224v-6.542"/>
	<path fill="none" stroke="#000000" stroke-width="1.152" stroke-linecap="round" stroke-miterlimit="10" d="M388.707,234.173
		c-0.135,0.135-0.211,0.318-0.211,0.509"/>
	
		<path fill="none" stroke="#000000" stroke-width="1.152" stroke-linecap="round" stroke-linejoin="round" stroke-miterlimit="10" d="
		M388.707,234.173l0.869-0.869 M389.576,233.304v-5.04 M389.396,233.124h-11.7 M377.696,233.124v0.18 M377.696,233.124v-15.84
		 M377.696,217.284h7.982"/>
	<path fill="none" stroke="#000000" stroke-width="1.152" stroke-linecap="round" stroke-miterlimit="10" d="M386.187,217.495
		c-0.135-0.135-0.318-0.211-0.509-0.211"/>
	
		<path fill="none" stroke="#000000" stroke-width="1.152" stroke-linecap="round" stroke-linejoin="round" stroke-miterlimit="10" d="
		M386.187,217.495l3.929,3.929 M390.116,221.424h4.68 M394.796,221.424v14.282"/>
	<path fill="none" stroke="#000000" stroke-width="1.152" stroke-linecap="round" stroke-miterlimit="10" d="M394.796,235.706
		c0,0.191,0.076,0.374,0.211,0.509"/>
	
		<path fill="none" stroke="#000000" stroke-width="1.152" stroke-linecap="round" stroke-linejoin="round" stroke-miterlimit="10" d="
		M395.007,236.215l0.329,0.329 M395.336,236.544h9.602"/>
	<path fill="none" stroke="#000000" stroke-width="1.152" stroke-linecap="round" stroke-miterlimit="10" d="M404.938,236.544
		c0.191,0,0.374-0.076,0.509-0.211"/>
	
		<path fill="none" stroke="#000000" stroke-width="1.152" stroke-linecap="round" stroke-linejoin="round" stroke-miterlimit="10" d="
		M405.447,236.333l0.329-0.329 M405.776,236.004v-3.42 M405.776,232.584h2.52 M408.296,232.584h0.36 M395.696,222.144v11.88
		 M396.776,221.784v11.88 M401.816,232.584v-7.2 M409.016,231.566v-7.324"/>
	<path fill="none" stroke="#000000" stroke-width="1.152" stroke-linecap="round" stroke-miterlimit="10" d="M409.016,224.242
		c0-0.191-0.076-0.374-0.211-0.509"/>
	
		<path fill="none" stroke="#000000" stroke-width="1.152" stroke-linecap="round" stroke-linejoin="round" stroke-miterlimit="10" d="
		M408.805,223.733l-2.309-2.309 M394.796,221.424h11.7 M411.536,223.944v5.4 M411.536,229.344h2.942"/>
	<path fill="none" stroke="#000000" stroke-width="1.152" stroke-linecap="round" stroke-miterlimit="10" d="M414.987,229.555
		c-0.135-0.135-0.318-0.211-0.509-0.211"/>
	
		<path fill="none" stroke="#000000" stroke-width="1.152" stroke-linecap="round" stroke-linejoin="round" stroke-miterlimit="10" d="
		M414.987,229.555l2.669,2.669 M417.656,232.224h6.542"/>
	<path fill="none" stroke="#000000" stroke-width="1.152" stroke-linecap="round" stroke-miterlimit="10" d="M424.707,232.435
		c-0.135-0.135-0.318-0.211-0.509-0.211"/>
	
		<path fill="none" stroke="#000000" stroke-width="1.152" stroke-linecap="round" stroke-linejoin="round" stroke-miterlimit="10" d="
		M424.707,232.435l1.589,1.589 M426.296,234.024v10.8 M426.296,244.824h-5.04 M421.256,244.824v5.04 M421.256,249.864h4.68
		 M411.536,223.584h6.48 M418.016,223.584v3.96 M418.016,227.544h5.76 M423.776,227.544h1.142"/>
	<path fill="none" stroke="#000000" stroke-width="1.152" stroke-linecap="round" stroke-miterlimit="10" d="M425.427,227.755
		c-0.135-0.135-0.318-0.211-0.509-0.211"/>
	
		<path fill="none" stroke="#000000" stroke-width="1.152" stroke-linecap="round" stroke-linejoin="round" stroke-miterlimit="10" d="
		M425.427,227.755l4.109,4.109 M429.536,231.864v12.96 M429.536,244.824h4.68 M434.216,244.824v5.04 M434.216,249.864h-4.022
		 M423.776,227.544v-4.32 M388.136,235.464h-4.32 M388.496,241.224h-5.04 M377.696,217.284v-9.54 M377.696,207.744h-7.56
		 M370.136,207.744v24.542"/>
	<path fill="none" stroke="#000000" stroke-width="1.152" stroke-linecap="round" stroke-miterlimit="10" d="M370.285,233.155
		c0.019-0.083,0.028-0.169,0.028-0.254c0-0.218-0.062-0.431-0.178-0.615"/>
	
		<path fill="none" stroke="#000000" stroke-width="1.152" stroke-linecap="round" stroke-linejoin="round" stroke-miterlimit="10" d="
		M370.285,233.155l-0.149,0.149 M370.136,233.304h7.56"/>
	<path fill="none" stroke="#000000" stroke-width="1.152" stroke-linecap="round" stroke-miterlimit="10" d="M408.805,232.075
		c0.135-0.135,0.211-0.318,0.211-0.509"/>
	
		<path fill="none" stroke="#000000" stroke-width="1.152" stroke-linecap="round" stroke-linejoin="round" stroke-miterlimit="10" d="
		M408.805,232.075l-0.509,0.509 M405.776,226.104v2.88 M364.736,250.224h12.6 M364.736,244.824h12.24 M377.336,250.224v5.76
		 M377.336,255.984h-23.4 M353.936,255.984v-13.68 M353.936,242.304h10.8 M364.736,242.304v7.92 M425.936,249.864v10.502"/>
	<path fill="none" stroke="#000000" stroke-width="1.152" stroke-linecap="round" stroke-miterlimit="10" d="M425.725,260.875
		c0.135-0.135,0.211-0.318,0.211-0.509"/>
	
		<path fill="none" stroke="#000000" stroke-width="1.152" stroke-linecap="round" stroke-linejoin="round" stroke-miterlimit="10" d="
		M425.725,260.875l-21.029,21.029 M404.696,281.904v13.32 M404.696,295.224v2.582"/>
	<path fill="none" stroke="#000000" stroke-width="1.152" stroke-linecap="round" stroke-miterlimit="10" d="M404.696,297.806
		c0,0.191,0.076,0.374,0.211,0.509"/>
	
		<line fill="none" stroke="#000000" stroke-width="1.152" stroke-linecap="round" stroke-linejoin="round" stroke-miterlimit="10" x1="404.907" y1="298.315" x2="405.416" y2="298.824"/>
	<path fill="none" stroke="#000000" stroke-width="1.152" stroke-linecap="round" stroke-miterlimit="10" d="M430.194,249.864
		c-0.191,0-0.374,0.076-0.509,0.211"/>
	
		<path fill="none" stroke="#000000" stroke-width="1.152" stroke-linecap="round" stroke-linejoin="round" stroke-miterlimit="10" d="
		M429.685,250.075l-0.149,0.149 M429.536,250.224v14.822"/>
	<path fill="none" stroke="#000000" stroke-width="1.152" stroke-linecap="round" stroke-miterlimit="10" d="M429.325,265.555
		c0.135-0.135,0.211-0.318,0.211-0.509"/>
	
		<path fill="none" stroke="#000000" stroke-width="1.152" stroke-linecap="round" stroke-linejoin="round" stroke-miterlimit="10" d="
		M429.325,265.555l-19.229,19.229 M410.096,284.784v3.302"/>
	<path fill="none" stroke="#000000" stroke-width="1.152" stroke-linecap="round" stroke-miterlimit="10" d="M410.096,288.086
		c0,0.191,0.076,0.374,0.211,0.509"/>
	
		<path fill="none" stroke="#000000" stroke-width="1.152" stroke-linecap="round" stroke-linejoin="round" stroke-miterlimit="10" d="
		M410.307,288.595l1.949,1.949 M412.256,290.544h2.582"/>
	<path fill="none" stroke="#000000" stroke-width="1.152" stroke-linecap="round" stroke-miterlimit="10" d="M415.347,290.755
		c-0.135-0.135-0.318-0.211-0.509-0.211"/>
	
		<path fill="none" stroke="#000000" stroke-width="1.152" stroke-linecap="round" stroke-linejoin="round" stroke-miterlimit="10" d="
		M415.347,290.755l0.509,0.509 M414.776,299.184h4.68 M419.456,299.184h0.36 M419.816,299.184l0.36,0.36 M420.176,299.544v2.52
		 M417.656,304.584h-0.36 M415.856,295.224h-2.88 M404.696,295.224h-7.2 M397.496,295.224h-3.96 M393.536,295.224v-3.96
		 M393.536,291.264h10.8 M397.496,295.224v7.622"/>
	<path fill="none" stroke="#000000" stroke-width="1.152" stroke-linecap="round" stroke-miterlimit="10" d="M397.285,303.355
		c0.135-0.135,0.211-0.318,0.211-0.509"/>
	
		<path fill="none" stroke="#000000" stroke-width="1.152" stroke-linecap="round" stroke-linejoin="round" stroke-miterlimit="10" d="
		M397.285,303.355l-0.509,0.509 M393.536,295.224v5.76 M393.536,300.984v14.04 M408.296,306.024v2.942"/>
	<path fill="none" stroke="#000000" stroke-width="1.152" stroke-linecap="round" stroke-miterlimit="10" d="M408.085,309.475
		c0.135-0.135,0.211-0.318,0.211-0.509"/>
	
		<path fill="none" stroke="#000000" stroke-width="1.152" stroke-linecap="round" stroke-linejoin="round" stroke-miterlimit="10" d="
		M408.085,309.475l-1.949,1.949 M406.136,311.424v11.222"/>
	<path fill="none" stroke="#000000" stroke-width="1.152" stroke-linecap="round" stroke-miterlimit="10" d="M405.925,323.155
		c0.135-0.135,0.211-0.318,0.211-0.509"/>
	
		<line fill="none" stroke="#000000" stroke-width="1.152" stroke-linecap="round" stroke-linejoin="round" stroke-miterlimit="10" x1="405.925" y1="323.155" x2="405.776" y2="323.304"/>
	<path fill="none" stroke="#000000" stroke-width="1.152" stroke-linecap="round" stroke-miterlimit="10" d="M417.147,323.515
		c-0.135-0.135-0.318-0.211-0.509-0.211"/>
	
		<path fill="none" stroke="#000000" stroke-width="1.152" stroke-linecap="round" stroke-linejoin="round" stroke-miterlimit="10" d="
		M417.147,323.515l0.149,0.149 M404.696,305.664h-2.222"/>
	<path fill="none" stroke="#000000" stroke-width="1.152" stroke-linecap="round" stroke-miterlimit="10" d="M402.474,305.664
		c-0.191,0-0.374,0.076-0.509,0.211"/>
	
		<path fill="none" stroke="#000000" stroke-width="1.152" stroke-linecap="round" stroke-linejoin="round" stroke-miterlimit="10" d="
		M401.965,305.875l-0.149,0.149 M401.816,306.024l-1.08,1.08 M400.736,307.104v14.102"/>
	<path fill="none" stroke="#000000" stroke-width="1.152" stroke-linecap="round" stroke-miterlimit="10" d="M400.525,321.715
		c0.135-0.135,0.211-0.318,0.211-0.509"/>
	
		<path fill="none" stroke="#000000" stroke-width="1.152" stroke-linecap="round" stroke-linejoin="round" stroke-miterlimit="10" d="
		M400.525,321.715l-0.149,0.149 M419.816,311.424v-4.68 M405.776,323.304h3.302"/>
	<path fill="none" stroke="#000000" stroke-width="1.152" stroke-linecap="round" stroke-miterlimit="10" d="M409.587,323.515
		c-0.135-0.135-0.318-0.211-0.509-0.211"/>
	
		<path fill="none" stroke="#000000" stroke-width="1.152" stroke-linecap="round" stroke-linejoin="round" stroke-miterlimit="10" d="
		M409.587,323.515l0.149,0.149 M412.616,324.024v-0.062"/>
	<path fill="none" stroke="#000000" stroke-width="1.152" stroke-linecap="round" stroke-miterlimit="10" d="M412.827,323.453
		c-0.135,0.135-0.211,0.318-0.211,0.509"/>
	
		<path fill="none" stroke="#000000" stroke-width="1.152" stroke-linecap="round" stroke-linejoin="round" stroke-miterlimit="10" d="
		M412.827,323.453l0.149-0.149 M412.976,323.304h3.6 M398.216,323.664h-1.142"/>
	<path fill="none" stroke="#000000" stroke-width="1.152" stroke-linecap="round" stroke-miterlimit="10" d="M397.074,323.664
		c-0.191,0-0.374,0.076-0.509,0.211"/>
	
		<path fill="none" stroke="#000000" stroke-width="1.152" stroke-linecap="round" stroke-linejoin="round" stroke-miterlimit="10" d="
		M396.565,323.875l-7.709,7.709 M388.856,331.584h-19.862"/>
	<path fill="none" stroke="#000000" stroke-width="1.152" stroke-linecap="round" stroke-miterlimit="10" d="M368.485,331.373
		c0.135,0.135,0.318,0.211,0.509,0.211"/>
	
		<path fill="none" stroke="#000000" stroke-width="1.152" stroke-linecap="round" stroke-linejoin="round" stroke-miterlimit="10" d="
		M368.485,331.373l-1.589-1.589 M366.896,329.784v-3.302"/>
	<path fill="none" stroke="#000000" stroke-width="1.152" stroke-linecap="round" stroke-miterlimit="10" d="M366.896,326.482
		c0-0.191-0.076-0.374-0.211-0.509"/>
	
		<path fill="none" stroke="#000000" stroke-width="1.152" stroke-linecap="round" stroke-linejoin="round" stroke-miterlimit="10" d="
		M366.685,325.973l-1.229-1.229 M365.456,324.744h-3.662"/>
	<path fill="none" stroke="#000000" stroke-width="1.152" stroke-linecap="round" stroke-miterlimit="10" d="M361.794,324.744
		c-0.191,0-0.374,0.076-0.509,0.211"/>
	
		<path fill="none" stroke="#000000" stroke-width="1.152" stroke-linecap="round" stroke-linejoin="round" stroke-miterlimit="10" d="
		M361.285,324.955l-1.589,1.589 M359.696,326.544v5.102"/>
	<path fill="none" stroke="#000000" stroke-width="1.152" stroke-linecap="round" stroke-miterlimit="10" d="M359.696,331.646
		c0,0.191,0.076,0.374,0.211,0.509"/>
	
		<path fill="none" stroke="#000000" stroke-width="1.152" stroke-linecap="round" stroke-linejoin="round" stroke-miterlimit="10" d="
		M359.907,332.155l1.949,1.949 M361.856,334.104h29.942"/>
	<path fill="none" stroke="#000000" stroke-width="1.152" stroke-linecap="round" stroke-miterlimit="10" d="M391.798,334.104
		c0.191,0,0.374-0.076,0.509-0.211"/>
	
		<path fill="none" stroke="#000000" stroke-width="1.152" stroke-linecap="round" stroke-linejoin="round" stroke-miterlimit="10" d="
		M392.307,333.893l8.429-8.429 M400.736,325.104v4.32 M403.256,328.704v2.222"/>
	<path fill="none" stroke="#000000" stroke-width="1.152" stroke-linecap="round" stroke-miterlimit="10" d="M403.045,331.435
		c0.135-0.135,0.211-0.318,0.211-0.509"/>
	
		<path fill="none" stroke="#000000" stroke-width="1.152" stroke-linecap="round" stroke-linejoin="round" stroke-miterlimit="10" d="
		M403.045,331.435l-5.549,5.549 M397.496,336.984l-0.36,0.36 M397.136,337.344h-36.422"/>
	<path fill="none" stroke="#000000" stroke-width="1.152" stroke-linecap="round" stroke-miterlimit="10" d="M360.205,337.133
		c0.135,0.135,0.318,0.211,0.509,0.211"/>
	
		<path fill="none" stroke="#000000" stroke-width="1.152" stroke-linecap="round" stroke-linejoin="round" stroke-miterlimit="10" d="
		M360.205,337.133l-2.669-2.669 M357.536,334.464v-14.462"/>
	<path fill="none" stroke="#000000" stroke-width="1.152" stroke-linecap="round" stroke-miterlimit="10" d="M357.747,319.493
		c-0.135,0.135-0.211,0.318-0.211,0.509"/>
	
		<path fill="none" stroke="#000000" stroke-width="1.152" stroke-linecap="round" stroke-linejoin="round" stroke-miterlimit="10" d="
		M357.747,319.493l3.029-3.029 M366.896,316.104h0.782"/>
	<path fill="none" stroke="#000000" stroke-width="1.152" stroke-linecap="round" stroke-miterlimit="10" d="M368.187,316.315
		c-0.135-0.135-0.318-0.211-0.509-0.211"/>
	
		<path fill="none" stroke="#000000" stroke-width="1.152" stroke-linecap="round" stroke-linejoin="round" stroke-miterlimit="10" d="
		M368.187,316.315l1.229,1.229 M369.416,317.544h6.12 M375.536,317.544h5.76 M381.296,317.544h0.36 M381.656,317.544v4.382"/>
	<path fill="none" stroke="#000000" stroke-width="1.152" stroke-linecap="round" stroke-miterlimit="10" d="M381.445,322.435
		c0.135-0.135,0.211-0.318,0.211-0.509"/>
	
		<path fill="none" stroke="#000000" stroke-width="1.152" stroke-linecap="round" stroke-linejoin="round" stroke-miterlimit="10" d="
		M381.445,322.435l-0.509,0.509 M380.936,322.944h-0.36 M380.576,322.944h-6.12 M378.056,261.744h-16.982"/>
	<path fill="none" stroke="#000000" stroke-width="1.152" stroke-linecap="round" stroke-miterlimit="10" d="M361.074,261.744
		c-0.191,0-0.374,0.076-0.509,0.211"/>
	
		<path fill="none" stroke="#000000" stroke-width="1.152" stroke-linecap="round" stroke-linejoin="round" stroke-miterlimit="10" d="
		M360.565,261.955l-3.389,3.389 M357.176,265.344v19.142"/>
	<path fill="none" stroke="#000000" stroke-width="1.152" stroke-linecap="round" stroke-miterlimit="10" d="M357.176,284.486
		c0,0.191,0.076,0.374,0.211,0.509"/>
	
		<path fill="none" stroke="#000000" stroke-width="1.152" stroke-linecap="round" stroke-linejoin="round" stroke-miterlimit="10" d="
		M357.387,284.995l5.909,5.909 M363.296,290.904h5.102"/>
	<path fill="none" stroke="#000000" stroke-width="1.152" stroke-linecap="round" stroke-miterlimit="10" d="M368.907,291.115
		c-0.135-0.135-0.318-0.211-0.509-0.211"/>
	
		<path fill="none" stroke="#000000" stroke-width="1.152" stroke-linecap="round" stroke-linejoin="round" stroke-miterlimit="10" d="
		M368.907,291.115l2.669,2.669 M371.576,293.784v8.702"/>
	<path fill="none" stroke="#000000" stroke-width="1.152" stroke-linecap="round" stroke-miterlimit="10" d="M371.576,302.486
		c0,0.191,0.076,0.374,0.211,0.509"/>
	
		<path fill="none" stroke="#000000" stroke-width="1.152" stroke-linecap="round" stroke-linejoin="round" stroke-miterlimit="10" d="
		M371.787,302.995l5.189,5.189 M376.976,308.184v5.04 M376.976,313.224h-1.44 M375.536,313.224v4.32 M381.296,317.544v-8.702"/>
	<path fill="none" stroke="#000000" stroke-width="1.152" stroke-linecap="round" stroke-miterlimit="10" d="M381.296,308.842
		c0-0.191-0.076-0.374-0.211-0.509"/>
	
		<path fill="none" stroke="#000000" stroke-width="1.152" stroke-linecap="round" stroke-linejoin="round" stroke-miterlimit="10" d="
		M381.085,308.333l-6.629-6.629 M374.456,301.704v-11.942"/>
	<path fill="none" stroke="#000000" stroke-width="1.152" stroke-linecap="round" stroke-miterlimit="10" d="M374.456,289.762
		c0-0.191-0.076-0.374-0.211-0.509"/>
	
		<path fill="none" stroke="#000000" stroke-width="1.152" stroke-linecap="round" stroke-linejoin="round" stroke-miterlimit="10" d="
		M374.245,289.253l-1.949-1.949 M372.296,287.304h-7.982"/>
	<path fill="none" stroke="#000000" stroke-width="1.152" stroke-linecap="round" stroke-miterlimit="10" d="M363.805,287.093
		c0.135,0.135,0.318,0.211,0.509,0.211"/>
	
		<path fill="none" stroke="#000000" stroke-width="1.152" stroke-linecap="round" stroke-linejoin="round" stroke-miterlimit="10" d="
		M363.805,287.093l-3.389-3.389 M360.416,283.704v-14.822"/>
	<path fill="none" stroke="#000000" stroke-width="1.152" stroke-linecap="round" stroke-miterlimit="10" d="M360.627,268.373
		c-0.135,0.135-0.211,0.318-0.211,0.509"/>
	
		<path fill="none" stroke="#000000" stroke-width="1.152" stroke-linecap="round" stroke-linejoin="round" stroke-miterlimit="10" d="
		M360.627,268.373l1.229-1.229 M361.856,267.144h16.2 M378.056,267.144v-5.4 M378.056,267.144v5.76 M378.056,272.904h-14.04
		 M364.016,272.904v5.76 M364.016,278.664v4.022"/>
	<path fill="none" stroke="#000000" stroke-width="1.152" stroke-linecap="round" stroke-miterlimit="10" d="M364.016,282.686
		c0,0.191,0.076,0.374,0.211,0.509"/>
	
		<path fill="none" stroke="#000000" stroke-width="1.152" stroke-linecap="round" stroke-linejoin="round" stroke-miterlimit="10" d="
		M364.227,283.195l0.869,0.869 M365.096,284.064h9.782"/>
	<path fill="none" stroke="#000000" stroke-width="1.152" stroke-linecap="round" stroke-miterlimit="10" d="M375.387,284.275
		c-0.135-0.135-0.318-0.211-0.509-0.211"/>
	
		<path fill="none" stroke="#000000" stroke-width="1.152" stroke-linecap="round" stroke-linejoin="round" stroke-miterlimit="10" d="
		M375.387,284.275l3.389,3.389 M378.776,287.664v11.222"/>
	<path fill="none" stroke="#000000" stroke-width="1.152" stroke-linecap="round" stroke-miterlimit="10" d="M378.776,298.886
		c0,0.191,0.076,0.374,0.211,0.509"/>
	
		<path fill="none" stroke="#000000" stroke-width="1.152" stroke-linecap="round" stroke-linejoin="round" stroke-miterlimit="10" d="
		M378.987,299.395l7.709,7.709 M386.696,307.104v11.942"/>
	<path fill="none" stroke="#000000" stroke-width="1.152" stroke-linecap="round" stroke-miterlimit="10" d="M386.696,319.046
		c0,0.191,0.076,0.374,0.211,0.509"/>
	
		<path fill="none" stroke="#000000" stroke-width="1.152" stroke-linecap="round" stroke-linejoin="round" stroke-miterlimit="10" d="
		M386.907,319.555l1.229,1.229 M388.136,320.784v1.502"/>
	<path fill="none" stroke="#000000" stroke-width="1.152" stroke-linecap="round" stroke-miterlimit="10" d="M387.925,322.795
		c0.135-0.135,0.211-0.318,0.211-0.509"/>
	
		<path fill="none" stroke="#000000" stroke-width="1.152" stroke-linecap="round" stroke-linejoin="round" stroke-miterlimit="10" d="
		M387.925,322.795l-0.869,0.869 M387.056,323.664h-5.462"/>
	<path fill="none" stroke="#000000" stroke-width="1.152" stroke-linecap="round" stroke-miterlimit="10" d="M381.085,323.453
		c0.135,0.135,0.318,0.211,0.509,0.211"/>
	
		<path fill="none" stroke="#000000" stroke-width="1.152" stroke-linecap="round" stroke-linejoin="round" stroke-miterlimit="10" d="
		M381.085,323.453l-0.509-0.509 M371.216,302.784h-3.6 M367.616,302.784v2.942"/>
	<path fill="none" stroke="#000000" stroke-width="1.152" stroke-linecap="round" stroke-miterlimit="10" d="M367.405,306.235
		c0.135-0.135,0.211-0.318,0.211-0.509"/>
	
		<path fill="none" stroke="#000000" stroke-width="1.152" stroke-linecap="round" stroke-linejoin="round" stroke-miterlimit="10" d="
		M367.405,306.235l-0.509,0.509 M366.896,306.744h-7.262"/>
	<path fill="none" stroke="#000000" stroke-width="1.152" stroke-linecap="round" stroke-miterlimit="10" d="M359.634,306.744
		c-0.191,0-0.374,0.076-0.509,0.211"/>
	
		<path fill="none" stroke="#000000" stroke-width="1.152" stroke-linecap="round" stroke-linejoin="round" stroke-miterlimit="10" d="
		M359.125,306.955l-7.349,7.349 M351.776,314.304v41.76 M351.776,356.064h4.32 M356.096,356.064v-15.12 M356.096,340.944v-1.142"/>
	<path fill="none" stroke="#000000" stroke-width="1.152" stroke-linecap="round" stroke-miterlimit="10" d="M356.096,339.802
		c0-0.191-0.076-0.374-0.211-0.509"/>
	
		<path fill="none" stroke="#000000" stroke-width="1.152" stroke-linecap="round" stroke-linejoin="round" stroke-miterlimit="10" d="
		M355.885,339.293l-1.589-1.589 M354.296,337.704v-22.022"/>
	<path fill="none" stroke="#000000" stroke-width="1.152" stroke-linecap="round" stroke-miterlimit="10" d="M354.507,315.173
		c-0.135,0.135-0.211,0.318-0.211,0.509"/>
	
		<path fill="none" stroke="#000000" stroke-width="1.152" stroke-linecap="round" stroke-linejoin="round" stroke-miterlimit="10" d="
		M354.507,315.173l5.549-5.549 M360.056,309.624h5.462"/>
	<path fill="none" stroke="#000000" stroke-width="1.152" stroke-linecap="round" stroke-miterlimit="10" d="M366.027,309.835
		c-0.135-0.135-0.318-0.211-0.509-0.211"/>
	
		<path fill="none" stroke="#000000" stroke-width="1.152" stroke-linecap="round" stroke-linejoin="round" stroke-miterlimit="10" d="
		M366.027,309.835l0.869,0.869 M366.896,310.704v5.4 M364.736,340.584h5.76 M370.496,340.584h7.2 M377.696,340.584h7.2
		 M384.896,340.584h7.2 M392.096,340.584v10.44 M392.096,351.024h-7.2 M384.896,351.024h-7.2 M377.696,351.024v-0.36
		 M377.696,350.664v-10.08 M384.896,340.584v10.44 M370.496,340.584v12.662"/>
	<path fill="none" stroke="#000000" stroke-width="1.152" stroke-linecap="round" stroke-miterlimit="10" d="M370.496,353.246
		c0,0.191,0.076,0.374,0.211,0.509"/>
	
		<path fill="none" stroke="#000000" stroke-width="1.152" stroke-linecap="round" stroke-linejoin="round" stroke-miterlimit="10" d="
		M370.707,353.755l14.189,14.189 M384.896,367.944h46.142"/>
	<path fill="none" stroke="#000000" stroke-width="1.152" stroke-linecap="round" stroke-miterlimit="10" d="M431.038,367.944
		c0.191,0,0.374-0.076,0.509-0.211"/>
	
		<path fill="none" stroke="#000000" stroke-width="1.152" stroke-linecap="round" stroke-linejoin="round" stroke-miterlimit="10" d="
		M431.547,367.733l7.709-7.709 M439.256,360.024v-41.822"/>
	<path fill="none" stroke="#000000" stroke-width="1.152" stroke-linecap="round" stroke-miterlimit="10" d="M439.256,318.202
		c0-0.191-0.076-0.374-0.211-0.509"/>
	
		<path fill="none" stroke="#000000" stroke-width="1.152" stroke-linecap="round" stroke-linejoin="round" stroke-miterlimit="10" d="
		M439.045,317.693l-8.429-8.429 M430.616,309.264h-5.04 M425.216,311.784h4.022"/>
	<path fill="none" stroke="#000000" stroke-width="1.152" stroke-linecap="round" stroke-miterlimit="10" d="M429.747,311.995
		c-0.135-0.135-0.318-0.211-0.509-0.211"/>
	
		<path fill="none" stroke="#000000" stroke-width="1.152" stroke-linecap="round" stroke-linejoin="round" stroke-miterlimit="10" d="
		M429.747,311.995l6.989,6.989 M436.736,318.984v7.56 M436.736,326.544v29.942"/>
	<path fill="none" stroke="#000000" stroke-width="1.152" stroke-linecap="round" stroke-miterlimit="10" d="M436.525,356.995
		c0.135-0.135,0.211-0.318,0.211-0.509"/>
	
		<path fill="none" stroke="#000000" stroke-width="1.152" stroke-linecap="round" stroke-linejoin="round" stroke-miterlimit="10" d="
		M436.525,356.995l-7.349,7.349 M429.176,364.344h-20.88 M408.296,364.344h-19.502"/>
	<path fill="none" stroke="#000000" stroke-width="1.152" stroke-linecap="round" stroke-miterlimit="10" d="M388.285,364.133
		c0.135,0.135,0.318,0.211,0.509,0.211"/>
	
		<path fill="none" stroke="#000000" stroke-width="1.152" stroke-linecap="round" stroke-linejoin="round" stroke-miterlimit="10" d="
		M388.285,364.133l-10.949-10.949 M377.336,353.184v-1.862"/>
	<path fill="none" stroke="#000000" stroke-width="1.152" stroke-linecap="round" stroke-miterlimit="10" d="M377.547,350.813
		c-0.135,0.135-0.211,0.318-0.211,0.509"/>
	
		<line fill="none" stroke="#000000" stroke-width="1.152" stroke-linecap="round" stroke-linejoin="round" stroke-miterlimit="10" x1="377.547" y1="350.813" x2="377.696" y2="350.664"/>
	<g>
		<defs>
			<rect id="SVGID_3_" x="344" y="201" width="103.44" height="175.44"/>
		</defs>
		<clipPath id="SVGID_4_">
			<use xlink:href="#SVGID_3_"  overflow="visible"/>
		</clipPath>
		
			<path clip-path="url(#SVGID_4_)" fill="none" stroke="#000000" stroke-width="1.152" stroke-linecap="round" stroke-miterlimit="10" d="
			M366.747,356.275c-0.135-0.135-0.318-0.211-0.509-0.211"/>
		
			<path clip-path="url(#SVGID_4_)" fill="none" stroke="#000000" stroke-width="1.152" stroke-linecap="round" stroke-linejoin="round" stroke-miterlimit="10" d="
			M366.747,356.275l15.629,15.629 M382.376,371.904h51.182"/>
		
			<path clip-path="url(#SVGID_4_)" fill="none" stroke="#000000" stroke-width="1.152" stroke-linecap="round" stroke-miterlimit="10" d="
			M433.558,371.904c0.191,0,0.374-0.076,0.509-0.211"/>
		
			<path clip-path="url(#SVGID_4_)" fill="none" stroke="#000000" stroke-width="1.152" stroke-linecap="round" stroke-linejoin="round" stroke-miterlimit="10" d="
			M434.067,371.693l8.429-8.429 M442.496,363.264v-45.782"/>
		
			<path clip-path="url(#SVGID_4_)" fill="none" stroke="#000000" stroke-width="1.152" stroke-linecap="round" stroke-miterlimit="10" d="
			M442.496,317.482c0-0.191-0.076-0.374-0.211-0.509"/>
		
			<path clip-path="url(#SVGID_4_)" fill="none" stroke="#000000" stroke-width="1.152" stroke-linecap="round" stroke-linejoin="round" stroke-miterlimit="10" d="
			M442.285,316.973l-10.229-10.229 M432.056,306.744h-1.08 M430.976,306.744h-2.942"/>
	</g>
	<path fill="none" stroke="#000000" stroke-width="1.152" stroke-linecap="round" stroke-miterlimit="10" d="M428.034,306.744
		c-0.191,0-0.374,0.076-0.509,0.211"/>
	
		<path fill="none" stroke="#000000" stroke-width="1.152" stroke-linecap="round" stroke-linejoin="round" stroke-miterlimit="10" d="
		M427.525,306.955l-0.149,0.149 M425.216,316.104v-4.32 M419.456,314.304v6.542"/>
	<path fill="none" stroke="#000000" stroke-width="1.152" stroke-linecap="round" stroke-miterlimit="10" d="M419.456,320.846
		c0,0.191,0.076,0.374,0.211,0.509"/>
	
		<path fill="none" stroke="#000000" stroke-width="1.152" stroke-linecap="round" stroke-linejoin="round" stroke-miterlimit="10" d="
		M419.667,321.355l0.149,0.149 M421.976,324.024h3.24 M425.216,324.024v-5.4 M425.216,324.384v0.422"/>
	<path fill="none" stroke="#000000" stroke-width="1.152" stroke-linecap="round" stroke-miterlimit="10" d="M425.216,324.806
		c0,0.191,0.076,0.374,0.211,0.509"/>
	
		<path fill="none" stroke="#000000" stroke-width="1.152" stroke-linecap="round" stroke-linejoin="round" stroke-miterlimit="10" d="
		M425.427,325.315l1.229,1.229 M426.656,326.544h10.08 M430.616,326.184v-3.6 M436.376,341.304h-5.4 M430.976,341.304v14.462"/>
	<path fill="none" stroke="#000000" stroke-width="1.152" stroke-linecap="round" stroke-miterlimit="10" d="M430.765,356.275
		c0.135-0.135,0.211-0.318,0.211-0.509"/>
	
		<path fill="none" stroke="#000000" stroke-width="1.152" stroke-linecap="round" stroke-linejoin="round" stroke-miterlimit="10" d="
		M430.765,356.275l-3.749,3.749 M427.016,360.024h-11.222"/>
	<path fill="none" stroke="#000000" stroke-width="1.152" stroke-linecap="round" stroke-miterlimit="10" d="M415.285,359.813
		c0.135,0.135,0.318,0.211,0.509,0.211"/>
	
		<path fill="none" stroke="#000000" stroke-width="1.152" stroke-linecap="round" stroke-linejoin="round" stroke-miterlimit="10" d="
		M415.285,359.813l-0.149-0.149 M415.136,359.664v-1.862"/>
	<path fill="none" stroke="#000000" stroke-width="1.152" stroke-linecap="round" stroke-miterlimit="10" d="M415.347,357.293
		c-0.135,0.135-0.211,0.318-0.211,0.509"/>
	
		<path fill="none" stroke="#000000" stroke-width="1.152" stroke-linecap="round" stroke-linejoin="round" stroke-miterlimit="10" d="
		M415.347,357.293l1.589-1.589 M416.936,355.704h0.062"/>
	<path fill="none" stroke="#000000" stroke-width="1.152" stroke-linecap="round" stroke-miterlimit="10" d="M416.998,355.704
		c0.191,0,0.374-0.076,0.509-0.211"/>
	
		<path fill="none" stroke="#000000" stroke-width="1.152" stroke-linecap="round" stroke-linejoin="round" stroke-miterlimit="10" d="
		M417.507,355.493l0.149-0.149 M417.656,355.344h6.48 M424.136,355.344h1.502"/>
	<path fill="none" stroke="#000000" stroke-width="1.152" stroke-linecap="round" stroke-miterlimit="10" d="M425.638,355.344
		c0.191,0,0.374-0.076,0.509-0.211"/>
	
		<path fill="none" stroke="#000000" stroke-width="1.152" stroke-linecap="round" stroke-linejoin="round" stroke-miterlimit="10" d="
		M426.147,355.133l2.669-2.669 M428.816,352.464v-17.702"/>
	<path fill="none" stroke="#000000" stroke-width="1.152" stroke-linecap="round" stroke-miterlimit="10" d="M428.816,334.762
		c0-0.191-0.076-0.374-0.211-0.509"/>
	
		<path fill="none" stroke="#000000" stroke-width="1.152" stroke-linecap="round" stroke-linejoin="round" stroke-miterlimit="10" d="
		M428.605,334.253l-8.789-8.789 M412.616,328.704h3.96 M410.456,328.704v1.142"/>
	<path fill="none" stroke="#000000" stroke-width="1.152" stroke-linecap="round" stroke-miterlimit="10" d="M410.456,329.846
		c0,0.191,0.076,0.374,0.211,0.509"/>
	
		<path fill="none" stroke="#000000" stroke-width="1.152" stroke-linecap="round" stroke-linejoin="round" stroke-miterlimit="10" d="
		M410.667,330.355l0.509,0.509 M411.176,330.864h1.44 M412.616,330.864v3.96 M412.616,334.824h-4.022"/>
	<path fill="none" stroke="#000000" stroke-width="1.152" stroke-linecap="round" stroke-miterlimit="10" d="M408.085,334.613
		c0.135,0.135,0.318,0.211,0.509,0.211"/>
	
		<path fill="none" stroke="#000000" stroke-width="1.152" stroke-linecap="round" stroke-linejoin="round" stroke-miterlimit="10" d="
		M408.085,334.613l-1.229-1.229 M406.856,333.384v-4.68 M406.856,328.704h-1.08 M407.216,328.704h0.36 M412.256,297.384v-1.142"/>
	<path fill="none" stroke="#000000" stroke-width="1.152" stroke-linecap="round" stroke-miterlimit="10" d="M412.467,295.733
		c-0.135,0.135-0.211,0.318-0.211,0.509"/>
	
		<path fill="none" stroke="#000000" stroke-width="1.152" stroke-linecap="round" stroke-linejoin="round" stroke-miterlimit="10" d="
		M412.467,295.733l0.509-0.509 M418.376,291.264h2.942"/>
	<path fill="none" stroke="#000000" stroke-width="1.152" stroke-linecap="round" stroke-miterlimit="10" d="M421.827,291.475
		c-0.135-0.135-0.318-0.211-0.509-0.211"/>
	
		<path fill="none" stroke="#000000" stroke-width="1.152" stroke-linecap="round" stroke-linejoin="round" stroke-miterlimit="10" d="
		M421.827,291.475l0.509,0.509 M422.336,291.984v2.582"/>
	<path fill="none" stroke="#000000" stroke-width="1.152" stroke-linecap="round" stroke-miterlimit="10" d="M422.336,294.566
		c0,0.191,0.076,0.374,0.211,0.509"/>
	
		<path fill="none" stroke="#000000" stroke-width="1.152" stroke-linecap="round" stroke-linejoin="round" stroke-miterlimit="10" d="
		M422.547,295.075l1.229,1.229 M423.776,296.304h3.24 M427.016,296.304v6.182"/>
	<path fill="none" stroke="#000000" stroke-width="1.152" stroke-linecap="round" stroke-miterlimit="10" d="M426.805,302.995
		c0.135-0.135,0.211-0.318,0.211-0.509"/>
	
		<path fill="none" stroke="#000000" stroke-width="1.152" stroke-linecap="round" stroke-linejoin="round" stroke-miterlimit="10" d="
		M426.805,302.995l-0.869,0.869 M425.936,303.864h-3.662"/>
	<path fill="none" stroke="#000000" stroke-width="1.152" stroke-linecap="round" stroke-miterlimit="10" d="M422.274,303.864
		c-0.191,0-0.374,0.076-0.509,0.211"/>
	
		<path fill="none" stroke="#000000" stroke-width="1.152" stroke-linecap="round" stroke-linejoin="round" stroke-miterlimit="10" d="
		M421.765,304.075l-0.149,0.149 M418.016,295.224v2.222"/>
	<path fill="none" stroke="#000000" stroke-width="1.152" stroke-linecap="round" stroke-miterlimit="10" d="M418.016,297.446
		c0,0.191,0.076,0.374,0.211,0.509"/>
	
		<path fill="none" stroke="#000000" stroke-width="1.152" stroke-linecap="round" stroke-linejoin="round" stroke-miterlimit="10" d="
		M418.227,297.955l1.229,1.229 M416.936,328.704v8.64 M416.936,337.344h-3.96 M412.976,337.344v4.32 M412.976,341.664h6.902"/>
	<path fill="none" stroke="#000000" stroke-width="1.152" stroke-linecap="round" stroke-miterlimit="10" d="M420.387,341.875
		c-0.135-0.135-0.318-0.211-0.509-0.211"/>
	
		<path fill="none" stroke="#000000" stroke-width="1.152" stroke-linecap="round" stroke-linejoin="round" stroke-miterlimit="10" d="
		M420.387,341.875l2.309,2.309 M422.696,344.184v6.48 M422.696,350.664v2.942"/>
	<path fill="none" stroke="#000000" stroke-width="1.152" stroke-linecap="round" stroke-miterlimit="10" d="M422.696,353.606
		c0,0.191,0.076,0.374,0.211,0.509"/>
	
		<path fill="none" stroke="#000000" stroke-width="1.152" stroke-linecap="round" stroke-linejoin="round" stroke-miterlimit="10" d="
		M422.907,354.115l1.229,1.229 M406.856,333.744v15.542"/>
	<path fill="none" stroke="#000000" stroke-width="1.152" stroke-linecap="round" stroke-miterlimit="10" d="M406.856,349.286
		c0,0.191,0.076,0.374,0.211,0.509"/>
	
		<path fill="none" stroke="#000000" stroke-width="1.152" stroke-linecap="round" stroke-linejoin="round" stroke-miterlimit="10" d="
		M407.067,349.795l1.229,1.229 M408.296,351.024h3.302"/>
	<path fill="none" stroke="#000000" stroke-width="1.152" stroke-linecap="round" stroke-miterlimit="10" d="M412.107,351.235
		c-0.135-0.135-0.318-0.211-0.509-0.211"/>
	
		<path fill="none" stroke="#000000" stroke-width="1.152" stroke-linecap="round" stroke-linejoin="round" stroke-miterlimit="10" d="
		M412.107,351.235l0.149,0.149 M412.256,351.384v3.6 M408.296,355.344h-5.04 M403.256,355.344v-12.302"/>
	<path fill="none" stroke="#000000" stroke-width="1.152" stroke-linecap="round" stroke-miterlimit="10" d="M403.256,343.042
		c0-0.191-0.076-0.374-0.211-0.509"/>
	
		<path fill="none" stroke="#000000" stroke-width="1.152" stroke-linecap="round" stroke-linejoin="round" stroke-miterlimit="10" d="
		M403.045,342.533l-5.549-5.549 M403.256,355.344v4.68 M403.256,360.024h4.742"/>
	<path fill="none" stroke="#000000" stroke-width="1.152" stroke-linecap="round" stroke-miterlimit="10" d="M407.998,360.024
		c0.191,0,0.374-0.076,0.509-0.211"/>
	
		<path fill="none" stroke="#000000" stroke-width="1.152" stroke-linecap="round" stroke-linejoin="round" stroke-miterlimit="10" d="
		M408.507,359.813l2.309-2.309 M412.256,351.384h4.742"/>
	<path fill="none" stroke="#000000" stroke-width="1.152" stroke-linecap="round" stroke-miterlimit="10" d="M416.998,351.384
		c0.191,0,0.374-0.076,0.509-0.211"/>
	
		<path fill="none" stroke="#000000" stroke-width="1.152" stroke-linecap="round" stroke-linejoin="round" stroke-miterlimit="10" d="
		M417.507,351.173l0.509-0.509 M418.016,350.664h4.68 M408.296,360.024v4.32 M361.856,340.944v15.12 M356.096,356.064h5.76
		 M366.176,356.064l-1.229-1.229"/>
	<path fill="none" stroke="#000000" stroke-width="1.152" stroke-linecap="round" stroke-miterlimit="10" d="M364.736,354.326
		c0,0.191,0.076,0.374,0.211,0.509"/>
	
		<path fill="none" stroke="#000000" stroke-width="1.152" stroke-linecap="round" stroke-linejoin="round" stroke-miterlimit="10" d="
		M364.736,354.326v-13.742 M361.856,340.944h-5.76 M411.896,232.584h2.16 M414.056,208.464v7.2 M419.816,208.104v7.56
		 M420.896,278.664h13.68 M434.576,278.664v5.4 M434.576,284.064h-3.24 M431.336,284.064l-0.571,0.149"/>
	<path fill="none" stroke="#000000" stroke-width="1.152" stroke-linecap="round" stroke-miterlimit="10" d="M430.976,284.722
		c0-0.191-0.076-0.374-0.211-0.509"/>
	
		<path fill="none" stroke="#000000" stroke-width="1.152" stroke-linecap="round" stroke-linejoin="round" stroke-miterlimit="10" d="
		M430.976,284.722v22.022 M427.016,296.304l-0.149-0.149"/>
	<path fill="none" stroke="#000000" stroke-width="1.152" stroke-linecap="round" stroke-miterlimit="10" d="M426.656,295.646
		c0,0.191,0.076,0.374,0.211,0.509"/>
	
		<path fill="none" stroke="#000000" stroke-width="1.152" stroke-linecap="round" stroke-linejoin="round" stroke-miterlimit="10" d="
		M426.656,295.646v-10.862 M426.656,284.784l-0.149-0.149"/>
	<path fill="none" stroke="#000000" stroke-width="1.152" stroke-linecap="round" stroke-miterlimit="10" d="M426.507,284.635
		c-0.135-0.135-0.318-0.211-0.509-0.211"/>
	
		<path fill="none" stroke="#000000" stroke-width="1.152" stroke-linecap="round" stroke-linejoin="round" stroke-miterlimit="10" d="
		M425.998,284.424h-5.102 M420.896,284.424v-5.76 M378.056,272.904l11.669,11.669"/>
	<path fill="none" stroke="#000000" stroke-width="1.152" stroke-linecap="round" stroke-miterlimit="10" d="M389.936,285.082
		c0-0.191-0.076-0.374-0.211-0.509"/>
	
		<path fill="none" stroke="#000000" stroke-width="1.152" stroke-linecap="round" stroke-linejoin="round" stroke-miterlimit="10" d="
		M389.936,285.082v12.662 M389.936,297.744v0.72 M389.936,298.464h-6.12 M383.816,298.464v-14.102"/>
	<path fill="none" stroke="#000000" stroke-width="1.152" stroke-linecap="round" stroke-miterlimit="10" d="M383.816,284.362
		c0-0.191-0.076-0.374-0.211-0.509"/>
	
		<path fill="none" stroke="#000000" stroke-width="1.152" stroke-linecap="round" stroke-linejoin="round" stroke-miterlimit="10" d="
		M383.605,283.853l-5.189-5.189 M378.416,278.664h-14.4 M380.936,300.624h7.982"/>
	<path fill="none" stroke="#000000" stroke-width="1.152" stroke-linecap="round" stroke-miterlimit="10" d="M389.427,300.835
		c-0.135-0.135-0.318-0.211-0.509-0.211"/>
	
		<path fill="none" stroke="#000000" stroke-width="1.152" stroke-linecap="round" stroke-linejoin="round" stroke-miterlimit="10" d="
		M389.427,300.835l1.229,1.229 M390.656,302.064v14.462"/>
	<path fill="none" stroke="#000000" stroke-width="1.152" stroke-linecap="round" stroke-miterlimit="10" d="M390.656,316.526
		c0,0.191,0.076,0.374,0.211,0.509"/>
	
		<path fill="none" stroke="#000000" stroke-width="1.152" stroke-linecap="round" stroke-linejoin="round" stroke-miterlimit="10" d="
		M390.867,317.035l1.229,1.229 M389.936,297.744h0.062"/>
	<path fill="none" stroke="#000000" stroke-width="1.152" stroke-linecap="round" stroke-miterlimit="10" d="M390.507,297.955
		c-0.135-0.135-0.318-0.211-0.509-0.211"/>
	
		<path fill="none" stroke="#000000" stroke-width="1.152" stroke-linecap="round" stroke-linejoin="round" stroke-miterlimit="10" d="
		M390.507,297.955l3.029,3.029 M360.056,325.824v-5.04 M397.856,301.704v0.062"/>
	<path fill="none" stroke="#000000" stroke-width="1.152" stroke-linecap="round" stroke-miterlimit="10" d="M397.856,301.766
		c0,0.191,0.076,0.374,0.211,0.509"/>
	
		<path fill="none" stroke="#000000" stroke-width="1.152" stroke-linecap="round" stroke-linejoin="round" stroke-miterlimit="10" d="
		M398.067,302.275l3.749,3.749 M403.256,299.184h0.422"/>
	<path fill="none" stroke="#000000" stroke-width="1.152" stroke-linecap="round" stroke-miterlimit="10" d="M403.678,299.184
		c0.191,0,0.374-0.076,0.509-0.211"/>
	
		<line fill="none" stroke="#000000" stroke-width="1.152" stroke-linecap="round" stroke-linejoin="round" stroke-miterlimit="10" x1="404.187" y1="298.973" x2="404.696" y2="298.464"/>
</g>
</svg>
