<?xml version="1.0" encoding="utf-8"?>
<!-- Generator: Adobe Illustrator 17.0.0, SVG Export Plug-In . SVG Version: 6.00 Build 0)  -->
<!DOCTYPE svg PUBLIC "-//W3C//DTD SVG 1.1//EN" "http://www.w3.org/Graphics/SVG/1.1/DTD/svg11.dtd">
<svg version="1.1" id="Layer_1" xmlns="http://www.w3.org/2000/svg" xmlns:xlink="http://www.w3.org/1999/xlink" x="0px" y="0px"
	 width="792px" height="576px" viewBox="0 0 792 576" enable-background="new 0 0 792 576" xml:space="preserve">
<g>
	<g>
		<defs>
			<rect id="SVGID_1_" x="344" y="201" width="103.44" height="175.44"/>
		</defs>
		<clipPath id="SVGID_2_">
			<use xlink:href="#SVGID_1_"  overflow="visible"/>
		</clipPath>
		
			<path clip-path="url(#SVGID_2_)" fill="none" stroke="#000000" stroke-width="0.72" stroke-linecap="round" stroke-linejoin="round" stroke-miterlimit="10" d="
			M348.896,370.464v2.52 M348.896,372.984h2.88"/>
	</g>
	
		<path fill="none" stroke="#000000" stroke-width="0.792" stroke-linecap="round" stroke-linejoin="round" stroke-miterlimit="10" d="
		M416.036,291.444v3.6 M417.836,291.444v3.6 M395.696,307.104h4.68 M395.696,309.264h4.68 M395.696,311.784h4.68 M396.056,313.944
		h4.32 M394.554,316.104h5.822 M395.951,318.624h4.425 M394.014,320.784h6.362 M400.736,322.224l-1.08,1.08 M399.656,323.304h-1.44
		 M402.176,323.304l-1.8,1.8 M402.176,323.304h1.08 M403.256,323.304v5.4 M405.596,323.304v5.4 M407.756,323.484v5.22
		 M410.096,323.844v4.68 M412.436,323.844v4.86 M414.596,323.844v4.5 M416.936,324.024v4.32"/>
	<path fill="none" stroke="#000000" stroke-width="0.792" stroke-linecap="round" stroke-miterlimit="10" d="M417.963,323.071
		c-0.081-0.081-0.192-0.127-0.307-0.127"/>
	
		<line fill="none" stroke="#000000" stroke-width="0.792" stroke-linecap="round" stroke-linejoin="round" stroke-miterlimit="10" x1="417.963" y1="323.071" x2="420.716" y2="325.824"/>
	<path fill="none" stroke="#000000" stroke-width="0.792" stroke-linecap="round" stroke-miterlimit="10" d="M419.096,321.324
		c0,0.23,0.092,0.452,0.255,0.615"/>
	
		<path fill="none" stroke="#000000" stroke-width="0.792" stroke-linecap="round" stroke-linejoin="round" stroke-miterlimit="10" d="
		M419.351,321.939l2.445,2.445 M419.816,320.784h5.22 M419.636,318.444h5.22 M419.276,316.104h6.12 M419.096,313.944h5.94
		 M419.996,311.604h5.4 M419.816,309.444h5.58 M419.996,307.104h7.56 M419.996,307.104v-1.62"/>
	<path fill="none" stroke="#000000" stroke-width="0.792" stroke-linecap="round" stroke-miterlimit="10" d="M419.996,305.484
		c0.163-0.115,0.273-0.29,0.307-0.487"/>
	
		<line fill="none" stroke="#000000" stroke-width="0.792" stroke-linecap="round" stroke-linejoin="round" stroke-miterlimit="10" x1="420.303" y1="304.997" x2="421.976" y2="303.324"/>
	<path fill="none" stroke="#000000" stroke-width="0.792" stroke-linecap="round" stroke-miterlimit="10" d="M417.476,304.404
		c0.059,0.012,0.12,0.018,0.18,0.018c0.173,0,0.343-0.051,0.487-0.146"/>
	
		<path fill="none" stroke="#000000" stroke-width="0.792" stroke-linecap="round" stroke-linejoin="round" stroke-miterlimit="10" d="
		M418.143,304.277l2.213-2.213 M416.756,299.364l0.18,0.18 M416.936,299.544v11.942"/>
	<path fill="none" stroke="#000000" stroke-width="0.792" stroke-linecap="round" stroke-miterlimit="10" d="M416.936,311.486
		c0,0.191,0.076,0.374,0.211,0.509"/>
	
		<path fill="none" stroke="#000000" stroke-width="0.792" stroke-linecap="round" stroke-linejoin="round" stroke-miterlimit="10" d="
		M417.147,311.995l1.949,1.949 M414.596,304.584v-5.22 M412.256,297.744v6.48 M412.256,304.224h-2.16 M410.096,304.224v-5.22
		 M410.096,299.004h-2.34 M407.756,299.004v6.362"/>
	<path fill="none" stroke="#000000" stroke-width="0.792" stroke-linecap="round" stroke-miterlimit="10" d="M407.756,305.366
		c0,0.191,0.076,0.374,0.211,0.509"/>
	
		<line fill="none" stroke="#000000" stroke-width="0.792" stroke-linecap="round" stroke-linejoin="round" stroke-miterlimit="10" x1="407.967" y1="305.875" x2="408.116" y2="306.024"/>
	<path fill="none" stroke="#000000" stroke-width="0.792" stroke-linecap="round" stroke-miterlimit="10" d="M404.696,305.844
		c0.115,0,0.226-0.046,0.307-0.127"/>
	
		<path fill="none" stroke="#000000" stroke-width="0.792" stroke-linecap="round" stroke-linejoin="round" stroke-miterlimit="10" d="
		M405.003,305.717l0.593-0.593 M405.596,305.124v-5.685"/>
	<path fill="none" stroke="#000000" stroke-width="0.792" stroke-linecap="round" stroke-miterlimit="10" d="M405.596,299.439
		c0-0.163-0.065-0.319-0.18-0.435"/>
	
		<path fill="none" stroke="#000000" stroke-width="0.792" stroke-linecap="round" stroke-linejoin="round" stroke-miterlimit="10" d="
		M403.256,305.484v-6.3 M395.876,313.944l-0.18-0.18 M395.696,313.764v-8.702"/>
	<path fill="none" stroke="#000000" stroke-width="0.792" stroke-linecap="round" stroke-miterlimit="10" d="M395.907,304.553
		c-0.135,0.135-0.211,0.318-0.211,0.509"/>
	
		<line fill="none" stroke="#000000" stroke-width="0.792" stroke-linecap="round" stroke-linejoin="round" stroke-miterlimit="10" x1="395.907" y1="304.553" x2="396.776" y2="303.684"/>
	<path fill="none" stroke="#000000" stroke-width="0.792" stroke-linecap="round" stroke-miterlimit="10" d="M395.516,318.444
		c0.115,0.115,0.272,0.18,0.435,0.18"/>
	
		<line fill="none" stroke="#000000" stroke-width="0.792" stroke-linecap="round" stroke-linejoin="round" stroke-miterlimit="10" x1="395.516" y1="318.444" x2="392.096" y2="318.444"/>
	<path fill="none" stroke="#000000" stroke-width="0.792" stroke-linecap="round" stroke-miterlimit="10" d="M394.045,315.893
		c0.135,0.135,0.318,0.211,0.509,0.211"/>
	
		<path fill="none" stroke="#000000" stroke-width="0.792" stroke-linecap="round" stroke-linejoin="round" stroke-miterlimit="10" d="
		M394.045,315.893l-0.509-0.509 M393.536,315.384v-0.465"/>
	<path fill="none" stroke="#000000" stroke-width="0.792" stroke-linecap="round" stroke-miterlimit="10" d="M393.536,314.919
		c0-0.163-0.065-0.319-0.18-0.435 M394.014,320.784c-0.191,0-0.374,0.076-0.509,0.211"/>
	
		<path fill="none" stroke="#000000" stroke-width="0.792" stroke-linecap="round" stroke-linejoin="round" stroke-miterlimit="10" d="
		M360.956,316.824l0.18-0.18 M361.136,316.644h5.102"/>
	<path fill="none" stroke="#000000" stroke-width="0.792" stroke-linecap="round" stroke-miterlimit="10" d="M366.238,316.644
		c0.191,0,0.374-0.076,0.509-0.211"/>
	
		<line fill="none" stroke="#000000" stroke-width="0.792" stroke-linecap="round" stroke-linejoin="round" stroke-miterlimit="10" x1="366.747" y1="316.433" x2="366.896" y2="316.284"/>
	<path fill="none" stroke="#000000" stroke-width="0.792" stroke-linecap="round" stroke-miterlimit="10" d="M360.003,320.297
		c-0.081,0.081-0.127,0.192-0.127,0.307"/>
	
		<path fill="none" stroke="#000000" stroke-width="0.792" stroke-linecap="round" stroke-linejoin="round" stroke-miterlimit="10" d="
		M360.003,320.297l1.853-1.853 M361.856,318.444h4.022"/>
	<path fill="none" stroke="#000000" stroke-width="0.792" stroke-linecap="round" stroke-miterlimit="10" d="M366.387,318.655
		c-0.135-0.135-0.318-0.211-0.509-0.211"/>
	
		<path fill="none" stroke="#000000" stroke-width="0.792" stroke-linecap="round" stroke-linejoin="round" stroke-miterlimit="10" d="
		M366.387,318.655l0.509,0.509 M366.896,319.164v2.762"/>
	<path fill="none" stroke="#000000" stroke-width="0.792" stroke-linecap="round" stroke-miterlimit="10" d="M366.896,321.926
		c0,0.191,0.076,0.374,0.211,0.509"/>
	
		<path fill="none" stroke="#000000" stroke-width="0.792" stroke-linecap="round" stroke-linejoin="round" stroke-miterlimit="10" d="
		M367.107,322.435l1.409,1.409 M368.516,323.844h4.562"/>
	<path fill="none" stroke="#000000" stroke-width="0.792" stroke-linecap="round" stroke-miterlimit="10" d="M373.078,323.844
		c0.191,0,0.374-0.076,0.509-0.211"/>
	
		<path fill="none" stroke="#000000" stroke-width="0.792" stroke-linecap="round" stroke-linejoin="round" stroke-miterlimit="10" d="
		M373.587,323.633l0.869-0.869 M367.256,326.364h0.422"/>
	<path fill="none" stroke="#000000" stroke-width="0.792" stroke-linecap="round" stroke-miterlimit="10" d="M367.678,326.364
		c0.191,0,0.374-0.076,0.509-0.211"/>
	
		<path fill="none" stroke="#000000" stroke-width="0.792" stroke-linecap="round" stroke-linejoin="round" stroke-miterlimit="10" d="
		M368.187,326.153l0.509-0.509 M368.696,325.464h4.742"/>
	<path fill="none" stroke="#000000" stroke-width="0.792" stroke-linecap="round" stroke-miterlimit="10" d="M373.947,325.675
		c-0.135-0.135-0.318-0.211-0.509-0.211"/>
	
		<path fill="none" stroke="#000000" stroke-width="0.792" stroke-linecap="round" stroke-linejoin="round" stroke-miterlimit="10" d="
		M373.947,325.675l0.509,0.509 M374.456,326.184h7.082"/>
	<path fill="none" stroke="#000000" stroke-width="0.792" stroke-linecap="round" stroke-miterlimit="10" d="M381.538,326.184
		c0.191,0,0.374-0.076,0.509-0.211"/>
	
		<path fill="none" stroke="#000000" stroke-width="0.792" stroke-linecap="round" stroke-linejoin="round" stroke-miterlimit="10" d="
		M382.047,325.973l0.149-0.149 M382.196,325.824h6.182"/>
	<path fill="none" stroke="#000000" stroke-width="0.792" stroke-linecap="round" stroke-miterlimit="10" d="M388.378,325.824
		c0.191,0,0.374-0.076,0.509-0.211"/>
	
		<path fill="none" stroke="#000000" stroke-width="0.792" stroke-linecap="round" stroke-linejoin="round" stroke-miterlimit="10" d="
		M388.887,325.613l4.618-4.618 M408.296,355.344l0.18-0.18 M408.476,355.164h3.78 M410.636,357.504h4.32"/>
</g>
</svg>
