<?xml version="1.0" encoding="utf-8"?>
<!-- Generator: Adobe Illustrator 17.0.0, SVG Export Plug-In . SVG Version: 6.00 Build 0)  -->
<!DOCTYPE svg PUBLIC "-//W3C//DTD SVG 1.1//EN" "http://www.w3.org/Graphics/SVG/1.1/DTD/svg11.dtd">
<svg version="1.1" id="Layer_1" xmlns="http://www.w3.org/2000/svg" xmlns:xlink="http://www.w3.org/1999/xlink" x="0px" y="0px"
	 width="792px" height="612px" viewBox="0 0 792 612" enable-background="new 0 0 792 612" xml:space="preserve">
<g>
	<g>
		<defs>
			<rect id="SVGID_1_" x="348" y="220" width="96.24" height="172.68"/>
		</defs>
		<clipPath id="SVGID_2_">
			<use xlink:href="#SVGID_1_"  overflow="visible"/>
		</clipPath>
		
			<path clip-path="url(#SVGID_2_)" fill="none" stroke="#000000" stroke-width="1.152" stroke-linecap="round" stroke-linejoin="round" stroke-miterlimit="10" d="
			M391.146,358.534v-12.6 M386.646,354.034v-9 M386.646,358.534v0.45 M386.646,358.984v1.35 M396.546,363.934h4.5 M403.296,363.934
			h2.25 M407.796,363.934h1.35 M396.546,368.434h10.35 M406.896,368.434h3.15 M410.946,356.284v5.85 M415.446,363.034v-4.5
			 M410.946,354.034v-8.1 M410.046,339.634h-4.5 M405.546,344.134h3.6 M403.296,344.134h-2.25 M401.046,339.634h-2.25
			 M396.546,339.634h-4.5 M396.546,344.134h-3.6 M394.296,363.934v-18.45 M394.296,345.484l-1.35-1.35 M396.546,363.934v-15.3
			 M396.546,348.634l2.25-2.25 M406.896,368.434v4.5 M406.896,372.934h-4.5 M402.396,372.934v4.5 M402.396,377.434h4.05
			 M406.446,377.434l0.9-0.9 M407.346,376.534h3.6 M410.946,376.534l1.35,1.35 M412.296,377.884v7.65 M412.296,385.534l0.9,0.9
			 M413.196,386.434h6.3 M419.496,386.434h7.2 M426.696,386.434h8.55 M435.246,386.434l1.8-1.8 M437.046,384.634v-80.55
			 M437.046,304.084v-4.5 M437.046,299.584v-5.85 M437.046,293.734v-5.85 M437.046,287.884v-3.6 M437.046,284.284l-1.8-1.8
			 M435.246,282.484h-8.1 M427.146,282.484v-4.95 M427.146,277.534h3.6 M430.746,277.534v-21.6 M430.746,255.934l-3.6-3.6
			 M427.146,252.334h-4.5 M422.646,252.334l-0.45,0.45 M422.196,252.784v4.95 M422.196,257.734h-4.5 M417.696,257.734v-4.95
			 M417.696,252.784h-4.95 M412.746,252.784l-0.45,0.45 M412.296,253.234v1.35 M412.296,254.584h-3.15 M409.146,254.584v-4.95
			 M409.146,249.634h33.3 M405.546,390.034v-7.65 M405.546,382.384l-0.45-0.45 M405.096,381.934h-3.15 M401.946,381.934l-4.5-4.5
			 M397.446,377.434v-4.05 M397.446,373.384l-2.25-2.25 M395.196,371.134h-29.7 M365.496,371.134l-7.2-7.2 M358.296,363.934h-3.6
			 M354.696,359.434h6.3 M360.996,359.434v2.7 M360.996,362.134l3.15,3.15 M364.146,365.284l3.15,3.15 M367.296,368.434h26.55
			 M396.546,339.634v-1.8 M396.546,337.834l-0.45-0.45 M396.096,337.384v-6.75 M396.546,326.134h3.15 M399.696,326.134v9.9
			 M399.696,336.034h3.15 M390.696,375.634v9 M390.696,384.634h-7.2 M383.496,384.634v-9 M383.496,375.634h7.2 M383.496,375.634
			h-7.2 M376.296,375.634h-7.2 M369.096,375.634h-7.2 M361.896,375.634v9 M361.896,384.634h7.2 M369.096,384.634h7.2
			 M376.296,384.634h7.2 M376.296,375.634v9 M369.096,375.634v9 M361.896,375.634h-3.15 M358.746,375.634l-2.7-2.7 M356.046,372.934
			l-0.45-0.45 M355.596,372.484h-4.05 M351.546,372.484v9.9 M351.546,382.384l2.25,2.25 M353.796,384.634h8.1 M413.646,363.034v8.55
			 M413.646,371.584l-1.8,1.8 M411.846,373.384h-4.5 M407.346,373.384l-0.45-0.45 M405.546,363.934v-16.2 M405.546,347.734l3.6-3.6
			 M407.796,363.934v-14.85 M407.796,349.084l3.15-3.15 M415.446,347.284h1.35 M416.796,347.284l4.5-4.5 M421.296,342.784h3.15
			 M424.446,342.784h2.25 M426.696,342.784v4.95 M426.696,347.734h-6.3 M420.396,347.734l-1.8,1.8 M418.596,349.534h-3.15
			 M415.446,351.784h6.3 M421.746,351.784l0.45,0.45 M422.196,352.234h4.5 M426.696,352.234v-4.5 M415.446,354.034h3.6
			 M419.046,354.034l2.7,2.7 M421.746,356.734h4.95 M426.696,356.734v-4.5 M419.496,386.434v-14.4 M419.496,372.034l-1.8-1.8
			 M417.696,370.234v-4.95 M417.696,365.284l0.45-0.45 M418.146,364.834v-7.2 M418.146,357.634l-0.9-0.9 M426.696,386.434v-12.15
			 M426.696,374.284l-5.4-5.4 M421.296,368.884v-11.7 M421.296,357.184l0.45-0.45 M414.996,345.034l6.75-6.75 M421.746,338.284
			v-21.6 M421.746,316.684l4.95-4.95 M426.696,311.734h0.45 M427.146,311.734h7.65 M434.796,316.684h-8.55 M426.246,316.684
			l-1.8,1.8 M424.446,318.484v4.05 M424.446,322.534v20.25 M412.296,345.034l2.7-2.7 M414.996,342.334v-79.65 M414.996,262.684
			l-2.7-2.7 M412.296,259.984v-1.8 M412.296,258.184h-3.15 M409.146,258.184v4.05 M409.146,262.234h-2.7 M406.446,262.234v-4.05
			 M406.446,258.184h-2.7 M403.746,258.184v1.35 M403.746,259.534h-9 M394.746,259.534l-2.25-2.25 M392.496,257.284v-13.05
			 M392.496,244.234v-0.45 M392.496,243.784l-14.4-14.4 M378.096,229.384v-3.6 M378.096,225.784l-0.45-0.45 M377.646,225.334h-5.85
			 M371.796,225.334l-0.45,0.45 M371.346,225.784v4.95 M371.346,230.734l2.25,2.25 M373.596,232.984h3.15 M376.746,232.984
			l9.45,9.45 M386.196,242.434v18.45 M386.196,260.884l1.35,1.35 M387.546,262.234v4.05 M387.546,266.284h4.05 M391.596,266.284
			l4.05-4.05 M395.646,262.234h7.65 M403.296,262.234l0.45,0.45 M403.746,262.684v1.35 M403.746,264.034l1.35,1.35 M410.046,265.384
			v74.25 M405.096,265.384h4.95 M392.496,244.234h6.3 M398.796,244.234l5.85,5.85 M404.646,250.084h1.8 M406.446,250.084v4.5
			 M406.446,254.584h-2.7 M403.746,254.584v-1.8 M403.746,252.784l-0.9-0.9 M402.846,251.884h-4.05 M398.796,251.884v7.2
			 M422.196,257.734v4.05 M417.696,257.734v4.05 M391.596,266.284v4.05 M387.546,266.284v4.05 M396.546,326.134v-15.75
			 M396.546,310.384l-15.75-15.75 M380.796,294.634h-0.9 M379.896,294.634h-8.1 M371.796,294.634v4.5 M371.796,299.134h9.45
			 M381.246,299.134l1.35,1.35 M382.596,300.484l11.25,11.25 M393.846,311.734v13.5 M393.846,325.234v0.9 M394.296,330.634
			l-0.45,0.45 M393.846,331.084l-4.5,4.5 M389.346,335.584v9"/>
		
			<path clip-path="url(#SVGID_2_)" fill="none" stroke="#000000" stroke-width="1.152" stroke-linecap="round" stroke-linejoin="round" stroke-miterlimit="10" d="
			M390.246,366.184h-21.6 M368.646,366.184l-1.8-1.8 M366.846,364.384v-5.4 M366.846,358.984l2.25-2.25 M369.096,356.734h7.65
			 M376.746,356.734v-3.6 M370.446,352.684h-1.35 M369.096,352.684l-3.6,3.6 M365.496,356.284l-1.35,1.35 M364.146,357.634v7.65
			 M386.646,363.034h-9.45 M377.196,363.034l-0.9,0.9 M376.296,363.934h-6.3 M369.996,363.934v-4.5 M369.996,359.434h9
			 M378.996,359.434l1.8-1.8 M382.596,356.734l2.25,2.25 M384.846,358.984h1.8 M380.796,357.634v-0.45 M367.296,351.334l-1.35,1.35
			 M365.946,352.684h-4.95 M360.996,352.684l-0.45-0.45 M360.546,352.234h-5.85 M354.696,356.284h10.8 M376.746,349.084v-3.6
			 M376.746,345.484h-8.1 M368.646,345.484l-1.35-1.35 M367.296,344.134v-6.3 M367.296,337.834l-0.9-0.9 M370.446,349.084v-0.9
			 M370.446,348.184h-5.85 M364.596,348.184l-3.15-3.15 M351.996,345.034v21.6 M351.996,366.634l1.35,1.35 M353.346,367.984h2.7
			 M356.046,367.984v4.95 M351.546,372.484h-1.8 M366.396,336.934h-16.65 M361.446,345.034h-9.45 M378.996,343.684v-4.95
			 M378.996,338.734l-11.7-11.7 M367.296,327.034v-19.35 M367.296,307.684l2.25-2.25 M369.546,305.434h2.25 M371.796,305.434h7.2
			 M378.996,305.434v4.5 M378.996,309.934h-9.45 M369.546,309.934v15.3 M369.546,325.234l10.8,10.8 M382.596,334.684l-1.35-1.35
			 M381.246,333.334l-9.45-9.45 M371.796,323.884v-7.2 M371.796,316.684v-4.05 M371.796,312.634l0.45-0.45 M372.246,312.184h8.55
			 M380.796,312.184l1.8-1.8 M382.596,310.384v-9.9 M371.796,299.134v6.3 M371.796,316.684h7.2 M378.996,316.684l2.7,2.7
			 M381.696,319.384v13.5 M381.696,332.884l-0.45,0.45 M384.396,342.334l0.9-0.9 M385.296,341.434v-24.75 M385.296,316.684l-4.5-4.5
			 M385.746,325.234h8.1 M385.746,331.084h8.1 M434.796,322.534h-10.35 M434.796,322.534v-10.8 M434.796,311.734v-4.95
			 M434.796,306.784h-7.65 M427.146,306.784v4.95 M437.046,304.084h-9.9 M427.146,299.584h9.9 M427.596,293.734h9.45
			 M427.596,287.884h9.45 M427.146,304.084v-21.6 M414.096,228.034v1.8 M420.846,228.034v1.35 M416.346,225.784h1.8
			 M416.346,232.084h1.8 M371.796,287.884h8.1 M379.896,287.884v6.75 M371.796,294.634v-6.75 M369.546,282.484h10.35
			 M379.896,282.484v5.4 M369.546,282.484l-1.8-1.8 M367.746,280.684h-9 M358.746,280.684l-0.9,0.9 M357.846,281.584v6.3
			 M357.846,287.884l0.9,0.9 M358.746,288.784h10.35 M369.096,288.784l0.9-0.9 M369.996,287.884h1.8 M372.246,277.534h7.2"/>
		
			<path clip-path="url(#SVGID_2_)" fill="none" stroke="#000000" stroke-width="0.72" stroke-linecap="round" stroke-linejoin="round" stroke-miterlimit="10" d="
			M349.296,390.034v0.45 M349.296,390.484h0.45"/>
	</g>
</g>
</svg>
