<?xml version="1.0" encoding="utf-8"?>
<!-- Generator: Adobe Illustrator 17.0.0, SVG Export Plug-In . SVG Version: 6.00 Build 0)  -->
<!DOCTYPE svg PUBLIC "-//W3C//DTD SVG 1.1//EN" "http://www.w3.org/Graphics/SVG/1.1/DTD/svg11.dtd">
<svg version="1.1" id="Layer_1" xmlns="http://www.w3.org/2000/svg" xmlns:xlink="http://www.w3.org/1999/xlink" x="0px" y="0px"
	 width="792px" height="612px" viewBox="0 0 792 612" enable-background="new 0 0 792 612" xml:space="preserve">
<g>
	<g>
		<defs>
			<rect id="SVGID_1_" x="373" y="279" width="46.2" height="55.44"/>
		</defs>
		<clipPath id="SVGID_2_">
			<use xlink:href="#SVGID_1_"  overflow="visible"/>
		</clipPath>
		
			<path clip-path="url(#SVGID_2_)" fill="none" stroke="#000000" stroke-width="0.72" stroke-linecap="round" stroke-linejoin="round" stroke-miterlimit="10" d="
			M374.08,331.821v1.53 M374.08,333.352h1.53"/>
		
			<path clip-path="url(#SVGID_2_)" fill="none" stroke="#000000" stroke-width="1.152" stroke-linecap="round" stroke-linejoin="round" stroke-miterlimit="10" d="
			M410.17,302.211v4.5 M410.17,306.711h4.05 M414.22,306.711v-7.38"/>
		
			<path clip-path="url(#SVGID_2_)" fill="none" stroke="#000000" stroke-width="1.152" stroke-linecap="round" stroke-miterlimit="10" d="
			M414.22,299.332c0-0.646-0.524-1.17-1.17-1.17 M410.17,295.281c0,1.59,1.29,2.88,2.88,2.88"/>
	</g>
	
		<line fill="none" stroke="#000000" stroke-width="1.152" stroke-linecap="round" stroke-linejoin="round" stroke-miterlimit="10" x1="410.17" y1="295.281" x2="410.17" y2="289.341"/>
	<path fill="none" stroke="#000000" stroke-width="1.152" stroke-linecap="round" stroke-miterlimit="10" d="M410.17,289.341
		c0-1.59-1.29-2.88-2.88-2.88"/>
	
		<line fill="none" stroke="#000000" stroke-width="1.152" stroke-linecap="round" stroke-linejoin="round" stroke-miterlimit="10" x1="407.29" y1="286.461" x2="404.32" y2="286.461"/>
	<path fill="none" stroke="#000000" stroke-width="1.152" stroke-linecap="round" stroke-miterlimit="10" d="M404.32,286.461
		c-1.242,0-2.25,1.008-2.25,2.25"/>
	
		<path fill="none" stroke="#000000" stroke-width="1.152" stroke-linecap="round" stroke-linejoin="round" stroke-miterlimit="10" d="
		M402.07,288.711h-0.9 M390.82,288.711h-3.15"/>
	<path fill="none" stroke="#000000" stroke-width="1.152" stroke-linecap="round" stroke-miterlimit="10" d="M387.67,288.711
		c-0.745,0-1.35,0.605-1.35,1.35"/>
	<g>
		<defs>
			<rect id="SVGID_3_" x="373" y="279" width="46.2" height="55.44"/>
		</defs>
		<clipPath id="SVGID_4_">
			<use xlink:href="#SVGID_3_"  overflow="visible"/>
		</clipPath>
		
			<line clip-path="url(#SVGID_4_)" fill="none" stroke="#000000" stroke-width="1.152" stroke-linecap="round" stroke-linejoin="round" stroke-miterlimit="10" x1="410.17" y1="306.711" x2="410.17" y2="327.681"/>
		
			<path clip-path="url(#SVGID_4_)" fill="none" stroke="#000000" stroke-width="1.152" stroke-linecap="round" stroke-miterlimit="10" d="
			M407.29,330.561c1.59,0,2.88-1.29,2.88-2.88"/>
		
			<line clip-path="url(#SVGID_4_)" fill="none" stroke="#000000" stroke-width="1.152" stroke-linecap="round" stroke-linejoin="round" stroke-miterlimit="10" x1="407.29" y1="330.561" x2="406.3" y2="330.561"/>
		
			<path clip-path="url(#SVGID_4_)" fill="none" stroke="#000000" stroke-width="1.152" stroke-linecap="round" stroke-miterlimit="10" d="
			M403.42,327.681c0,1.59,1.29,2.88,2.88,2.88"/>
		
			<path clip-path="url(#SVGID_4_)" fill="none" stroke="#000000" stroke-width="1.152" stroke-linecap="round" stroke-linejoin="round" stroke-miterlimit="10" d="
			M403.42,327.681v-21.42 M404.77,293.661h-2.25 M402.52,293.661h-4.05 M398.47,293.661h-4.95 M393.52,293.661h-4.05
			 M393.52,293.661v2.7 M393.52,296.361v2.7 M393.52,299.061v2.7 M398.47,293.661v2.7 M398.47,296.361h4.05 M402.52,296.361v-2.7
			 M389.47,293.661v2.7 M389.47,296.361h4.05 M393.52,299.061h-5.85 M414.22,306.711v6.3 M390.82,301.761h2.7 M393.52,301.761v7.2"
			/>
	</g>
	<path fill="none" stroke="#000000" stroke-width="1.152" stroke-linecap="round" stroke-miterlimit="10" d="M390.82,311.661
		c1.49,0,2.7-1.21,2.7-2.7 M390.82,311.661c-1.242,0-2.25,1.008-2.25,2.25"/>
	<g>
		<defs>
			<rect id="SVGID_5_" x="373" y="279" width="46.2" height="55.44"/>
		</defs>
		<clipPath id="SVGID_6_">
			<use xlink:href="#SVGID_5_"  overflow="visible"/>
		</clipPath>
		
			<line clip-path="url(#SVGID_6_)" fill="none" stroke="#000000" stroke-width="1.152" stroke-linecap="round" stroke-linejoin="round" stroke-miterlimit="10" x1="388.57" y1="313.911" x2="388.57" y2="327.681"/>
		
			<path clip-path="url(#SVGID_6_)" fill="none" stroke="#000000" stroke-width="1.152" stroke-linecap="round" stroke-miterlimit="10" d="
			M385.69,330.561c1.59,0,2.88-1.29,2.88-2.88"/>
		
			<line clip-path="url(#SVGID_6_)" fill="none" stroke="#000000" stroke-width="1.152" stroke-linecap="round" stroke-linejoin="round" stroke-miterlimit="10" x1="385.69" y1="330.561" x2="384.7" y2="330.561"/>
		
			<path clip-path="url(#SVGID_6_)" fill="none" stroke="#000000" stroke-width="1.152" stroke-linecap="round" stroke-miterlimit="10" d="
			M381.82,327.681c0,1.59,1.29,2.88,2.88,2.88"/>
	</g>
	
		<line fill="none" stroke="#000000" stroke-width="1.152" stroke-linecap="round" stroke-linejoin="round" stroke-miterlimit="10" x1="381.82" y1="327.681" x2="381.82" y2="308.691"/>
	<path fill="none" stroke="#000000" stroke-width="1.152" stroke-linecap="round" stroke-miterlimit="10" d="M386.05,304.461
		c-2.335,0-4.23,1.895-4.23,4.23"/>
	
		<path fill="none" stroke="#000000" stroke-width="1.152" stroke-linecap="round" stroke-linejoin="round" stroke-miterlimit="10" d="
		M386.05,304.461h-0.18 M404.32,299.061h-5.85 M398.47,299.061v2.7 M398.47,301.761h2.7 M398.47,301.761v16.2"/>
	<path fill="none" stroke="#000000" stroke-width="1.152" stroke-linecap="round" stroke-miterlimit="10" d="M397.57,318.861
		c0.497,0,0.9-0.403,0.9-0.9 M397.57,318.861c-0.745,0-1.35,0.605-1.35,1.35"/>
	<g>
		<defs>
			<rect id="SVGID_7_" x="373" y="279" width="46.2" height="55.44"/>
		</defs>
		<clipPath id="SVGID_8_">
			<use xlink:href="#SVGID_7_"  overflow="visible"/>
		</clipPath>
		
			<line clip-path="url(#SVGID_8_)" fill="none" stroke="#000000" stroke-width="1.152" stroke-linecap="round" stroke-linejoin="round" stroke-miterlimit="10" x1="396.22" y1="320.211" x2="396.22" y2="327.681"/>
		
			<path clip-path="url(#SVGID_8_)" fill="none" stroke="#000000" stroke-width="1.152" stroke-linecap="round" stroke-miterlimit="10" d="
			M396.22,327.681c0,1.59,1.29,2.88,2.88,2.88"/>
		
			<line clip-path="url(#SVGID_8_)" fill="none" stroke="#000000" stroke-width="1.152" stroke-linecap="round" stroke-linejoin="round" stroke-miterlimit="10" x1="399.1" y1="330.561" x2="400.54" y2="330.561"/>
		
			<path clip-path="url(#SVGID_8_)" fill="none" stroke="#000000" stroke-width="1.152" stroke-linecap="round" stroke-miterlimit="10" d="
			M400.54,330.561c1.59,0,2.88-1.29,2.88-2.88"/>
	</g>
</g>
</svg>
