<?xml version="1.0" encoding="utf-8"?>
<!-- Generator: Adobe Illustrator 17.0.0, SVG Export Plug-In . SVG Version: 6.00 Build 0)  -->
<!DOCTYPE svg PUBLIC "-//W3C//DTD SVG 1.1//EN" "http://www.w3.org/Graphics/SVG/1.1/DTD/svg11.dtd">
<svg version="1.1" id="Layer_1" xmlns="http://www.w3.org/2000/svg" xmlns:xlink="http://www.w3.org/1999/xlink" x="0px" y="0px"
	 width="44.64px" height="54.017px" viewBox="0 0 44.64 54.017" enable-background="new 0 0 44.64 54.017" xml:space="preserve">
<title>/Users/kina/Documents/eagle/thesis/sht21_breakout/sht21-breakout_v2.brd</title>
<desc>generated by eagle2svg 1.2, developed by http://www.nicai-systems.de</desc>
<g id="surface0">
	<line fill="none" stroke="#000000" stroke-width="0.254" stroke-linecap="round" x1="0.36" y1="49.36" x2="0.36" y2="50.89"/>
	<line fill="none" stroke="#000000" stroke-width="0.254" stroke-linecap="round" x1="0.36" y1="50.89" x2="1.89" y2="50.89"/>
	<line fill="none" stroke="#000000" stroke-width="0.4064" stroke-linecap="round" x1="36.45" y1="19.75" x2="36.45" y2="24.25"/>
	<line fill="none" stroke="#000000" stroke-width="0.4064" stroke-linecap="round" x1="36.45" y1="24.25" x2="40.5" y2="24.25"/>
	<line fill="none" stroke="#000000" stroke-width="0.4064" stroke-linecap="round" x1="40.5" y1="24.25" x2="40.5" y2="16.87"/>
	<path fill="none" stroke="#000000" stroke-width="0.4064" stroke-linecap="round" d="M40.5,16.87c0-0.646-0.524-1.17-1.17-1.17
		c0,0,0,0,0,0"/>
	<path fill="none" stroke="#000000" stroke-width="0.4064" stroke-linecap="round" d="M36.45,12.82c0,1.591,1.289,2.88,2.88,2.88"/>
	<line fill="none" stroke="#000000" stroke-width="0.4064" stroke-linecap="round" x1="36.45" y1="12.82" x2="36.45" y2="6.88"/>
	<path fill="none" stroke="#000000" stroke-width="0.4064" stroke-linecap="round" d="M36.45,6.88c0-1.591-1.289-2.88-2.88-2.88
		c0,0,0,0,0,0"/>
	<line fill="none" stroke="#000000" stroke-width="0.4064" stroke-linecap="round" x1="33.57" y1="4" x2="30.6" y2="4"/>
	<path fill="none" stroke="#000000" stroke-width="0.4064" stroke-linecap="round" d="M30.6,4c-1.243,0-2.25,1.007-2.25,2.25v0"/>
	<line fill="none" stroke="#000000" stroke-width="0.4064" stroke-linecap="round" x1="28.35" y1="6.25" x2="27.45" y2="6.25"/>
	<line fill="none" stroke="#000000" stroke-width="0.4064" stroke-linecap="round" x1="17.1" y1="6.25" x2="13.95" y2="6.25"/>
	<path fill="none" stroke="#000000" stroke-width="0.4064" stroke-linecap="round" d="M13.95,6.25c-0.746,0-1.35,0.604-1.35,1.35"/>
	<line fill="none" stroke="#000000" stroke-width="0.4064" stroke-linecap="round" x1="36.45" y1="24.25" x2="36.45" y2="45.22"/>
	<path fill="none" stroke="#000000" stroke-width="0.4064" stroke-linecap="round" d="M33.57,48.1c1.591,0,2.88-1.289,2.88-2.88
		c0,0,0,0,0,0"/>
	<line fill="none" stroke="#000000" stroke-width="0.4064" stroke-linecap="round" x1="33.57" y1="48.1" x2="32.58" y2="48.1"/>
	<path fill="none" stroke="#000000" stroke-width="0.4064" stroke-linecap="round" d="M29.7,45.22c0,1.591,1.289,2.88,2.88,2.88"/>
	<line fill="none" stroke="#000000" stroke-width="0.4064" stroke-linecap="round" x1="29.7" y1="45.22" x2="29.7" y2="23.8"/>
	<line fill="none" stroke="#000000" stroke-width="0.4064" stroke-linecap="round" x1="31.05" y1="11.2" x2="28.8" y2="11.2"/>
	<line fill="none" stroke="#000000" stroke-width="0.4064" stroke-linecap="round" x1="28.8" y1="11.2" x2="24.75" y2="11.2"/>
	<line fill="none" stroke="#000000" stroke-width="0.4064" stroke-linecap="round" x1="24.75" y1="11.2" x2="19.8" y2="11.2"/>
	<line fill="none" stroke="#000000" stroke-width="0.4064" stroke-linecap="round" x1="19.8" y1="11.2" x2="15.75" y2="11.2"/>
	<line fill="none" stroke="#000000" stroke-width="0.4064" stroke-linecap="round" x1="19.8" y1="11.2" x2="19.8" y2="13.9"/>
	<line fill="none" stroke="#000000" stroke-width="0.4064" stroke-linecap="round" x1="19.8" y1="13.9" x2="19.8" y2="16.6"/>
	<line fill="none" stroke="#000000" stroke-width="0.4064" stroke-linecap="round" x1="19.8" y1="16.6" x2="19.8" y2="19.3"/>
	<line fill="none" stroke="#000000" stroke-width="0.4064" stroke-linecap="round" x1="24.75" y1="11.2" x2="24.75" y2="13.9"/>
	<line fill="none" stroke="#000000" stroke-width="0.4064" stroke-linecap="round" x1="24.75" y1="13.9" x2="28.8" y2="13.9"/>
	<line fill="none" stroke="#000000" stroke-width="0.4064" stroke-linecap="round" x1="28.8" y1="13.9" x2="28.8" y2="11.2"/>
	<line fill="none" stroke="#000000" stroke-width="0.4064" stroke-linecap="round" x1="15.75" y1="11.2" x2="15.75" y2="13.9"/>
	<line fill="none" stroke="#000000" stroke-width="0.4064" stroke-linecap="round" x1="15.75" y1="13.9" x2="19.8" y2="13.9"/>
	<line fill="none" stroke="#000000" stroke-width="0.4064" stroke-linecap="round" x1="19.8" y1="16.6" x2="13.95" y2="16.6"/>
	<line fill="none" stroke="#000000" stroke-width="0.4064" stroke-linecap="round" x1="40.5" y1="24.25" x2="40.5" y2="30.55"/>
	<line fill="none" stroke="#000000" stroke-width="0.4064" stroke-linecap="round" x1="17.1" y1="19.3" x2="19.8" y2="19.3"/>
	<line fill="none" stroke="#000000" stroke-width="0.4064" stroke-linecap="round" x1="19.8" y1="19.3" x2="19.8" y2="26.5"/>
	<path fill="none" stroke="#000000" stroke-width="0.4064" stroke-linecap="round" d="M17.1,29.2c1.491,0,2.7-1.209,2.7-2.7l0,0"/>
	<path fill="none" stroke="#000000" stroke-width="0.4064" stroke-linecap="round" d="M17.1,29.2c-1.243,0-2.25,1.007-2.25,2.25"/>
	<line fill="none" stroke="#000000" stroke-width="0.4064" stroke-linecap="round" x1="14.85" y1="31.45" x2="14.85" y2="45.22"/>
	<path fill="none" stroke="#000000" stroke-width="0.4064" stroke-linecap="round" d="M11.97,48.1c1.591,0,2.88-1.289,2.88-2.88"/>
	<line fill="none" stroke="#000000" stroke-width="0.4064" stroke-linecap="round" x1="11.97" y1="48.1" x2="10.98" y2="48.1"/>
	<path fill="none" stroke="#000000" stroke-width="0.4064" stroke-linecap="round" d="M8.1,45.22c0,1.591,1.289,2.88,2.88,2.88"/>
	<line fill="none" stroke="#000000" stroke-width="0.4064" stroke-linecap="round" x1="8.1" y1="45.22" x2="8.1" y2="26.23"/>
	<path fill="none" stroke="#000000" stroke-width="0.4064" stroke-linecap="round" d="M12.33,22c-2.336,0-4.23,1.894-4.23,4.23l0,0"
		/>
	<line fill="none" stroke="#000000" stroke-width="4.4064" stroke-linecap="round" x1="12.33" y1="22" x2="12.15" y2="22"/>
	<line fill="none" stroke="#000000" stroke-width="0.4064" stroke-linecap="round" x1="30.6" y1="16.6" x2="24.75" y2="16.6"/>
	<line fill="none" stroke="#000000" stroke-width="0.4064" stroke-linecap="round" x1="24.75" y1="16.6" x2="24.75" y2="19.3"/>
	<line fill="none" stroke="#000000" stroke-width="0.4064" stroke-linecap="round" x1="24.75" y1="19.3" x2="27.45" y2="19.3"/>
	<line fill="none" stroke="#000000" stroke-width="0.4064" stroke-linecap="round" x1="24.75" y1="19.3" x2="24.75" y2="35.5"/>
	<path fill="none" stroke="#000000" stroke-width="0.4064" stroke-linecap="round" d="M23.85,36.4c0.497,0,0.9-0.403,0.9-0.9
		c0,0,0,0,0,0"/>
	<path fill="none" stroke="#000000" stroke-width="0.4064" stroke-linecap="round" d="M23.85,36.4c-0.746,0-1.35,0.604-1.35,1.35"/>
	<line fill="none" stroke="#000000" stroke-width="0.4064" stroke-linecap="round" x1="22.5" y1="37.75" x2="22.5" y2="45.22"/>
	<path fill="none" stroke="#000000" stroke-width="0.4064" stroke-linecap="round" d="M22.5,45.22c0,1.591,1.289,2.88,2.88,2.88"/>
	<line fill="none" stroke="#000000" stroke-width="0.4064" stroke-linecap="round" x1="25.38" y1="48.1" x2="26.82" y2="48.1"/>
	<path fill="none" stroke="#000000" stroke-width="0.4064" stroke-linecap="round" d="M26.82,48.1c1.591,0,2.88-1.289,2.88-2.88"/>
	<g>
		<title>PART C1</title>
	</g>
	<g>
		<title>PART JP1</title>
	</g>
	<g>
		<title>PART SN1</title>
	</g>
</g>
</svg>
