<?xml version="1.0" encoding="utf-8"?>
<!-- Generator: Adobe Illustrator 17.0.0, SVG Export Plug-In . SVG Version: 6.00 Build 0)  -->
<!DOCTYPE svg PUBLIC "-//W3C//DTD SVG 1.1//EN" "http://www.w3.org/Graphics/SVG/1.1/DTD/svg11.dtd">
<svg version="1.1" id="Layer_1" xmlns="http://www.w3.org/2000/svg" xmlns:xlink="http://www.w3.org/1999/xlink" x="0px" y="0px"
	 width="792px" height="612px" viewBox="0 0 792 612" enable-background="new 0 0 792 612" xml:space="preserve">
<g>
	
		<line fill="none" stroke="#020202" stroke-width="1.152" stroke-linecap="round" stroke-linejoin="round" stroke-miterlimit="10" x1="380.2" y1="280.009" x2="409.72" y2="280.009"/>
	<path fill="none" stroke="#020202" stroke-width="1.152" stroke-linecap="round" stroke-miterlimit="10" d="M417.64,287.208
		c-0.192-4.035-3.52-7.208-7.56-7.208c-0.12,0-0.24,0.003-0.36,0.009"/>
	
		<line fill="none" stroke="#020202" stroke-width="1.152" stroke-linecap="round" stroke-linejoin="round" stroke-miterlimit="10" x1="409.72" y1="334.009" x2="380.2" y2="334.009"/>
	<path fill="none" stroke="#020202" stroke-width="1.152" stroke-linecap="round" stroke-miterlimit="10" d="M373,326.809
		c0,3.974,3.226,7.2,7.2,7.2"/>
	
		<line fill="none" stroke="#020202" stroke-width="1.152" stroke-linecap="round" stroke-linejoin="round" stroke-miterlimit="10" x1="373" y1="326.809" x2="373" y2="287.209"/>
	<path fill="none" stroke="#020202" stroke-width="1.152" stroke-linecap="round" stroke-miterlimit="10" d="M409.72,334.008
		c0.12,0.006,0.24,0.009,0.361,0.009c4.04,0,7.367-3.173,7.56-7.208"/>
	
		<line fill="none" stroke="#020202" stroke-width="1.152" stroke-linecap="round" stroke-linejoin="round" stroke-miterlimit="10" x1="417.64" y1="326.809" x2="417.64" y2="287.209"/>
	<path fill="none" stroke="#020202" stroke-width="1.152" stroke-linecap="round" stroke-miterlimit="10" d="M380.2,280.009
		c-3.974,0-7.2,3.226-7.2,7.2"/>
	<rect x="398.296" y="300.276" width="1.984" height="1.134"/>
	<rect x="398.296" y="297.442" width="1.984" height="1.134"/>
	<rect x="398.296" y="294.607" width="1.984" height="1.134"/>
	<rect x="390.359" y="294.607" width="1.984" height="1.134"/>
	<rect x="390.359" y="297.442" width="1.984" height="1.134"/>
	<rect x="390.359" y="300.276" width="1.984" height="1.134"/>
	<rect x="410.283" y="307.93" width="2.835" height="2.693"/>
	<rect x="410.283" y="303.394" width="2.835" height="2.693"/>
</g>
</svg>
